<svg id="Layer_1" xmlns="http://www.w3.org/2000/svg" viewBox="0 0 500 500"><style>.st2{fill:#263238}.st3,.st4,.st5,.st6,.st7{fill:#263238;stroke:#263238;stroke-linecap:round;stroke-linejoin:round;stroke-miterlimit:10}.st4,.st5,.st6,.st7{fill:#fff}.st5,.st6,.st7{fill:#ba9765}.st6,.st7{fill:none}.st7{stroke-width:2}</style><g id="Background_Simple"><path d="M433.6 110.3c-1.5-2.6-3.1-5.1-4.8-7.5-22.2-32.7-59.2-55-95.2-65.1-15.8-4.4-31.9-6.8-48.1-7.4-105.9-3.8-144.8 83.5-178.9 106-34.1 22.5-86.5 61-79.9 141.8 5 61.4 39.9 120.2 103.7 146.9 7 3 14.4 5.5 22.1 7.6 14.4 4 30 6.4 46.8 7.2 48.2 2.1 87.4-9.5 125.8-38.8 8.9-6.8 17.8-14.5 29.3-15.3 8.4-.6 16.4 2.4 7.6 10.5-10.3 9.5 1.6 28.3 27.8 15.3 43.8-21.8 61.8-68.8 70.3-116.6 10.4-58.6 5.3-131.6-26.5-184.6z" fill="#ba9765"/><path d="M433.6 110.3c-1.5-2.6-3.1-5.1-4.8-7.5-22.2-32.7-59.2-55-95.2-65.1-15.8-4.4-31.9-6.8-48.1-7.4-105.9-3.8-144.8 83.5-178.9 106-34.1 22.5-86.5 61-79.9 141.8 5 61.4 39.9 120.2 103.7 146.9 7 3 14.4 5.5 22.1 7.6 14.4 4 30 6.4 46.8 7.2 48.2 2.1 87.4-9.5 125.8-38.8 8.9-6.8 17.8-14.5 29.3-15.3 8.4-.6 16.4 2.4 7.6 10.5-10.3 9.5 1.6 28.3 27.8 15.3 43.8-21.8 61.8-68.8 70.3-116.6 10.4-58.6 5.3-131.6-26.5-184.6z" opacity=".7" fill="#fff"/></g><g id="Plant"><path class="st2" d="M149.9 384.1c-2.6.8-8.8 0-8.8 0-.1 0 1.8-3.9 1.9-4.1 1.7-2.7 6.5-6.9 9.9-6 2.5.6 3.6 3.3 2.8 5.6-.8 2.3-3.5 3.8-5.8 4.5zM92.7 382.4c-.1 0-.7-4.2-.7-4.5-.1-3.2 1.6-9.3 4.9-10.5 2.4-.8 4.8.8 5.4 3.1.6 2.4-.8 5.2-2.3 7-1.8 2.2-7.3 4.9-7.3 4.9z"/><path class="st2" d="M93.7 427.8c2.1.3 6.1-.9 7.3-1.2.2 1.8.4 3.5.7 5.2.1.7.2 1.5.4 2.2.2.7.3 1.4.5 2.1.4 1.4.7 2.7 1.1 4 .2.7.4 1.3.6 1.9-.5-1-1.3-2.6-1.4-2.7-1.5-2.3-5.8-5.9-8.8-5.1-2.2.6-3.1 2.9-2.3 5 .8 2 3.2 3.3 5.2 3.9 2.2.6 7-.1 7.6-.2.5 1.6 1 3.1 1.5 4.5.3.9.6 1.8.9 2.6h2c-.4-1-.8-2.1-1.2-3.3-.5-1.3-.9-2.6-1.4-4 .5-.2 4.7-2 6.4-3.6 1.8 1.1 3.8 2.1 4.1 2.2-.5 1.6-.9 3.1-1.2 4.6-.4 1.5-.7 2.8-1 4.1h2c.2-1.2.5-2.4.8-3.7.3-1.3.7-2.7 1-4.1.6.1 5.4 1 7.6.5 2-.5 4.4-1.7 5.3-3.7.9-2 0-4.4-2.1-5-3-.9-7.4 2.5-9 4.7-.1.1-1.1 2-1.6 2.9.2-.9.4-1.7.7-2.6l1.2-3.9c.2-.7.5-1.3.7-2 .2-.7.5-1.3.8-2 .4-1 .9-2 1.3-3 1.3.4 5.1 1.7 7.1 1.5 2.1-.2 4.6-1 5.8-2.8 1.1-1.8.7-4.3-1.3-5.3-2.8-1.4-7.7 1.3-9.6 3.3-.1.1-.4.5-.9 1.1.5-1 .9-1.9 1.5-2.9 1.5-2.7 3-5.4 4.6-8.1.3-.6.6-1.1 1-1.7 1.1.4 5.2 1.7 7.3 1.5 2.1-.2 4.6-1 5.8-2.8 1.1-1.8.7-4.3-1.3-5.3-2.8-1.4-7.7 1.3-9.6 3.3-.1.1-.5.6-1 1.2l2.4-4.5c1.3-2.6 2.5-5.3 3.4-8 .4.1 5.2 1.8 7.5 1.6 2.1-.2 4.6-1 5.8-2.8 1.1-1.8.7-4.3-1.3-5.3-2.8-1.4-7.7 1.3-9.6 3.3-.1.1-1.7 2.2-2.2 2.9v-.1c.9-2.8 1.5-5.6 1.9-8.3.4-2.7.5-5.2.6-7.6.1-2.4 0-4.5-.1-6.4-.1-1-.1-2-.2-2.9h.1s1.3-3.5 1.3-3.8c.6-2.7.2-8.3-2.5-9.9-1.9-1.1-4.3-.2-5.2 1.8-.9 2-.2 4.6.8 6.4 1 1.9 4.4 4.6 5.3 5.3.1.9.1 1.9.1 3 0 1.9.1 4.1-.1 6.4 0 .6-.1 1.3-.1 1.9-.1-1.1-.4-2.6-.4-2.8-.7-2.7-3.6-7.4-6.7-7.6-2.2-.1-3.9 1.8-3.8 4 .1 2.2 1.9 4.2 3.7 5.3 1.8 1.2 6.2 2.1 7.2 2.2-.1 1.4-.3 2.9-.6 4.4-.4 2.6-1.1 5.4-2.1 8.2h-.2c0-1-.1-3.2-.1-3.4-.4-2.7-2.8-7.8-5.9-8.3-2.2-.4-4 1.4-4.2 3.5-.1 2.2 1.5 4.3 3 5.7 1.8 1.6 6.9 3 7.1 3.1-1 2.6-2.1 5.1-3.5 7.6-1 1.8-2 3.6-3.1 5.5 0-.7-.1-3.6-.1-3.8-.4-2.7-2.8-7.8-5.9-8.3-2.2-.4-4 1.4-4.2 3.5-.1 2.2 1.5 4.3 3 5.7 1.8 1.5 6.6 2.9 7 3.1-.5.8-1 1.6-1.5 2.5-1.6 2.7-3.3 5.4-4.8 8.1-.5.9-1 1.9-1.5 2.8 0-1.1-.1-3.1-.1-3.3-.4-2.7-2.8-7.8-5.9-8.3-2.2-.4-4 1.4-4.2 3.5-.1 2.2 1.5 4.3 3 5.7 1.6 1.4 5.6 2.6 6.8 3-.8 1.6-1.6 3.1-2.3 4.7-.3.7-.6 1.4-.8 2.1-.2.7-.5 1.3-.7 2-.5 1.4-.9 2.7-1.3 4-.2.7-.4 1.3-.6 1.9.2-1.1.4-2.9.4-3.1 0-2.8-1.6-8.1-4.5-9.1-2.1-.7-4.2.8-4.7 2.9-.1.3-.1.5-.1.8-1.4 2-2.2 5-2.3 6.8 0 .2.2 2.3.3 3.4-.3-.8-.6-1.7-.8-2.6l-1.2-3.9c-.2-.7-.4-1.4-.5-2.1-.2-.7-.3-1.4-.5-2.1-.2-1-.4-2.1-.5-3.2 1.3-.3 5.1-1.4 6.7-2.7 1.6-1.3 3.3-3.4 3.3-5.6-.1-2.1-1.8-4-4-3.7-3.1.4-5.7 5.3-6.2 8.1 0 .1-.1.7-.1 1.4-.1-1.1-.3-2.1-.4-3.2-.3-3.1-.4-6.2-.6-9.3 0-.7-.1-1.3-.1-2 1.1-.3 5.3-1.4 6.9-2.7 1.6-1.3 3.3-3.4 3.3-5.6-.1-2.1-1.8-4-4-3.7-3.1.4-5.7 5.3-6.2 8.1 0 .1-.1.8-.1 1.6-.1-1.7-.3-3.4-.5-5.1-.3-2.9-.8-5.8-1.6-8.5.4-.1 5.3-1.3 7.1-2.8 1.6-1.3 3.3-3.4 3.3-5.6-.1-2.1-1.8-4-4-3.7-3.1.4-5.7 5.3-6.2 8.1 0 .2-.2 2.7-.3 3.6v-.1c-.8-2.9-1.9-5.5-3-8s-2.4-4.7-3.7-6.7c-1.2-2-2.5-3.8-3.6-5.3-.6-.8-1.2-1.6-1.7-2.3h.1c.1 0-.9-3.7-.9-3.9-1-2.6-4.4-7-7.5-6.9-2.2.1-3.6 2.2-3.3 4.3.3 2.2 2.4 3.9 4.2 4.9 1.9 1 6.2 1.4 7.3 1.5.6.7 1.1 1.5 1.8 2.4 1.1 1.6 2.3 3.4 3.5 5.4.3.5.6 1.1 1 1.7-.7-.8-1.8-2-1.9-2.1-2.1-1.8-7.1-4.2-9.8-2.6-1.9 1.1-2.2 3.6-1 5.4 1.3 1.8 3.9 2.4 6 2.4 2.2 0 6.3-1.7 7.2-2.1.7 1.3 1.4 2.6 2 4 1.1 2.4 2.1 5.1 2.8 8-.1 0-.1 0-.2.1-.6-.9-1.9-2.7-2-2.8-1.8-2.1-6.6-5-9.5-3.7-2 .9-2.6 3.4-1.5 5.2 1.1 1.9 3.6 2.8 5.7 3.1 2.4.3 7.4-1.3 7.6-1.3.6 2.7 1 5.4 1.3 8.3.2 2.1.3 4.2.4 6.3-.4-.6-2.1-3-2.2-3.1-1.8-2.1-6.6-5-9.5-3.7-2 .9-2.6 3.4-1.5 5.2 1.1 1.9 3.6 2.8 5.7 3.1 2.3.3 7.1-1.2 7.5-1.3 0 1 .1 1.9.1 2.9.1 3.1.2 6.3.4 9.4.1 1.1.2 2.1.3 3.2-.6-.9-1.8-2.5-1.9-2.7-1.8-2.1-6.6-5-9.5-3.7-2 .9-2.6 3.4-1.5 5.2 1 2 3.6 2.9 5.6 3.2z"/></g><path class="st3" d="M299.7 130.8c-2.7-1.4-5.1-3.9-7.5-7.6-2.3-3.7-3.5-8-3.5-13 0-4.8 1.3-8.5 3.9-10.9 2.6-2.4 6.4-4.2 11.3-5.5l18.2-4.4c7.8-2 11.7-5.8 11.7-11.2 0-3-1.4-5.5-4.3-7.7s-7.8-3.3-14.8-3.3c-6.4 0-12.4.8-18 2.5s-10.1 3.5-13.6 5.7c-2.7-2-4.9-4.5-6.8-7.4-1.9-2.9-2.8-6.3-2.8-10.4 0-4.1 1.2-7.6 3.5-10.6s5.6-5.5 9.7-7.5c4.1-1.9 9-3.4 14.7-4.3 5.7-.9 12-1.4 18.8-1.4 18.4 0 32.3 4.1 41.7 12.3C371.3 54.3 376 65 376 78.2c0 24.9-17.6 40.9-52.8 47.9l-23.5 4.7zm-7.8 30.6c0-6.4 2-11.6 6-15.8 4-4.1 9.5-6.2 16.5-6.2s12.5 2.1 16.5 6.2 6 9.4 6 15.8-2 11.7-6 15.8c-4 4.1-9.5 6.2-16.5 6.2s-12.5-2.1-16.5-6.2-6-9.4-6-15.8z" id="Question_Mark"/><g id="Character"><path class="st3" d="M217.1 289.9l2 160.2h78.3L291 291.9z"/><path class="st4" d="M217.1 232.7l2 160.1h78.3L291 234.7z"/><path class="st3" d="M244.3 250l8.2 13.6-14.3 102.6 21.6 21.6 14-27-16.1-96.5 8.2-11.1-9.1-14.5z"/><path class="st5" d="M252.5 263.6l-.3 2.2 9.1-6.4 4.6-6.2-4.4-7-13.7 9.6zM247.8 297.5l13.8-9.8-1.9-11.6-9.9 6.9zM260.2 387l10.7-20.7-19.1 13.5 7.7 7.7zM263.9 301.6l-18.5 13.2-2 14.5 22.5-16zM269.1 332.8L240 353.4l-1.8 12.8.9.9 32-22.6z"/><path class="st4" d="M255.9 243.4L236 264.9l-6.8-27.8 2.1-8.6zM255.9 243.4l15.2 20 7.2-27.5-2.5-6.3z"/><g><path class="st4" d="M113.6 228.3s-6.8-13.8-10.2-18.4c-3.4-4.5-6.8-7.3-10.7-7.9-3.9-.7-6.6-.5-9.5-1.6s-8.8-2.7-10.4-4.8c-1.6-2-4.5-.7-3.2 2.7s6.1 5.7 6.1 5.7l3.9 1.8s-12.5 1.8-13.4 2.5-11.8 1.6-11.8 1.6 4.8 8.4 11.6 12.2 28.1.7 28.1.7l6.4 13.4 13.1-7.9zM50.1 207.7s-3.5-7.4-3.2-9.1c.3-1.6 3.4-.6 4.4 1.6s4.5 7.4 4.5 7.4h-5.7z"/><path class="st4" d="M43.9 204.1s5.4 11.6 9.1 14.7c3.6 3.2 10.9 3.4 10.9 3.4s-8.6-9.1-10.4-12.5c-1.9-3.3-8.5-11.5-9.6-5.6z"/><path class="st4" d="M48.3 205.1s5.4 11.6 9.1 14.7c3.6 3.2 10.9 3.4 10.9 3.4s-8.6-9.1-10.4-12.5c-1.9-3.3-8.5-11.5-9.6-5.6z"/><path class="st4" d="M97.5 216.9s-1.1-1.8-5-4.3-24.3 3.9-24.3 3.9-9.3-11.6-10.7-12.7-3.9-1.8-4.3.5c-.5 2.3 5.7 12 7.3 13.6s7.7 5.4 7.7 5.4 5.4 2 11.6 1.8 14.3-2.3 14.3-2.3M121.5 240.1l-8.1-14.4-19.8 11.9 5 12.3z"/><g><path class="st5" d="M229.2 237.1l-7.7 213h-55.9l11.3-151.8s-30.5 33.3-33.9 35.2c-3.5 1.9-7.9-4.1-7.9-4.1l-41.2-80.8 24.5-13.5 27 44 4.1-2.8 3.1 1.6s28-49.3 30.2-50.6c2.2-1.3 12.6-.6 12.6-.6l27 2.2 9.1-2-2.3 10.2z"/><path class="st3" d="M177.1 293.6l2-19.4-14.6 37 12.3-12.9z"/><path class="st6" d="M173.1 246.7s2.2 30.8 2.5 33M169.6 269.1l3.5 22M145.1 281.6l-8.2 17M152.3 280.1l-6.6 13.1M208.3 285.5c2.1 14.3 5.8 35.8 10.7 49.5M223 231.7s-10.1 15.4-13.2 20.1c-3.1 4.7-6.3 8.5-6.3 8.5l15.4 2.5-12.6 8.2s.3 2.9.9 7.5"/></g></g><g><path class="st4" d="M393.7 228.3s6.8-13.8 10.2-18.4 6.8-7.3 10.7-7.9c3.9-.7 6.6-.5 9.5-1.6 2.9-1.1 8.8-2.7 10.4-4.8 1.6-2 4.5-.7 3.2 2.7-1.4 3.4-6.1 5.7-6.1 5.7l-3.9 1.8s12.5 1.8 13.4 2.5c.9.7 11.8 1.6 11.8 1.6s-4.8 8.4-11.6 12.2-28.1.7-28.1.7l-6.4 13.4-13.1-7.9zM457.2 207.7s3.5-7.4 3.2-9.1c-.3-1.6-3.4-.6-4.4 1.6s-4.5 7.4-4.5 7.4h5.7z"/><path class="st4" d="M463.4 204.1s-5.4 11.6-9.1 14.7c-3.6 3.2-10.9 3.4-10.9 3.4s8.6-9.1 10.4-12.5c1.9-3.3 8.5-11.5 9.6-5.6z"/><path class="st4" d="M459.1 205.1s-5.4 11.6-9.1 14.7c-3.6 3.2-10.9 3.4-10.9 3.4s8.6-9.1 10.4-12.5c1.8-3.3 8.4-11.5 9.6-5.6z"/><path class="st4" d="M409.8 216.9s1.1-1.8 5-4.3 24.3 3.9 24.3 3.9 9.3-11.6 10.7-12.7 3.9-1.8 4.3.5c.5 2.3-5.7 12-7.3 13.6-1.6 1.6-7.7 5.4-7.7 5.4s-5.4 2-11.6 1.8-14.3-2.3-14.3-2.3M385.8 240.1l8.2-14.4 19.8 11.9-5.1 12.3z"/><g><path class="st5" d="M278.2 237.1l7.7 213h55.9l-11.3-151.8s30.5 33.3 33.9 35.2 7.9-4.1 7.9-4.1l41.2-80.8-24.5-13.5-27 44-4.1-2.8-3.1 1.6s-28-49.3-30.2-50.6c-2.2-1.3-12.6-.6-12.6-.6l-27 2.2-10-2 3.2 10.2z"/><path class="st3" d="M330.5 298.3l-.4-15.3 12.2 27.2z"/><path class="st6" d="M330.2 293.6l-2.8-41.5M333.6 260s-1.5 17.6-1.8 19.8M337.7 269.1l-3.4 22M362.2 281.6l1.6 9.1M355 280.1l-.1 6.2M290.7 327.9c-.7 2.5-1.5 5-2.3 7.2M284.3 231.7s10.1 15.4 13.2 20.1c3.1 4.7 6.3 8.5 6.3 8.5l-15.4 2.5L301 271s-3.3 29.6-9 52.1"/></g></g><g><path class="st4" d="M231.2 207.2l.1 21.4 24.6 14.9 19.9-13.8-1.8-24.2s-15.4 10-17.4 10.4-25.4-8.7-25.4-8.7z"/><path class="st3" d="M231.5 224.4l23.4-5.7-23.6-9.7z"/></g><g><path class="st3" d="M274 180.4s-.2-9.7 2.5-15.2c3-6 0-11.3 0-11.3l2.5-.9s-3.6-2.9-4.3-3.2c-.7-.2.5-6.3-1.6-9.5-2-3.2-4.1-3.9-4.1-3.9l-1.1 4.1s-6.1-7.3-9.5-8.6c-3.4-1.4-13.1-7.9-13.4-4.5s1.1 4.8 1.1 4.8-6.8-3.9-12-2.5-10.2 4.5-9.1 5.7c1.1 1.1 6.1 5.9 6.1 5.9s-11.6.5-12.9 1.8c-1.4 1.4-2 3.6-2 3.6l6.6 3.4s-5.9-.5-8.2 3.2c-2.3 3.6-2.7 5-1.1 5.7s4.5 2.7 4.5 2.7-1.6 2.7.2 7.3c1.8 4.5 6.1 14.5 6.1 14.5s1.6-16.3 2.7-19.5c1.1-3.2 15.2-10.6 17.2-11.3 2-.7 16.3 3.2 17.2 3.2.9 0 6.8 22.9 8.2 23.8 1.5.7 4.4.7 4.4.7z"/><path class="st4" d="M236.6 146.9s-15.2 15-15.4 17.4 6.6 41.2 7 42.6 16.5 11.6 21.5 12.7 10.2-.2 11.6-1.4c1.4-1.1 14.5-8.6 15.9-14.7 1.4-6.1-7.3-47.8-8.2-49.4-.9-1.5-22.2-11.7-32.4-7.2z"/><path class="st3" d="M236.6 146.9s5.3 2.6 7.4 3.6c2.2 1 4.6-2.4 4.6-2.4s18.6 6.4 20.4 6.1-5-7.3-12-9.9c-6.9-2.8-20.3-2.4-20.4 2.6z"/><path class="st6" d="M254.3 163.2s-3.2 3.4-3.2 4.8 3.9 18.4 3.6 19.3c-.2.9-3.2 2.3-4.5 2s-1.4-.2-1.4-.2-1.1.2-2.7.2-2-1.8-2-1.8M254.8 187.2s2.3.5 2.5-.9l.2-1.4M248.9 189s-1.6-1.1-.9-3.2M244.8 202.9s7.5-8.4 16.1-5"/><path class="st7" d="M243.7 165.9s-6.3-2.9-9.7-.7-4.8 5.9-4.8 5.9M257 163.2s2.7-2.5 6.3-1.1c3.6 1.4 5.4 4.8 5.4 4.8"/><ellipse class="st2" cx="239.2" cy="175.5" rx="1.7" ry="2.4"/><path class="st2" d="M261.2 172.1c0 1.3-.8 2.4-1.7 2.4-.9 0-1.7-1.1-1.7-2.4s.8-2.4 1.7-2.4c1 .1 1.7 1.1 1.7 2.4z"/><path class="st4" d="M224 180.9s-4.3-6.1-6.3-1.4c-2 4.8 0 8.6 2 11.8 2 3.2 6.3 4.8 6.3 4.8l-2-15.2zM274.5 173.4s.5-4.3 2.3-3.9c1.8.5 5.2 3.9 3.2 8.6-2 4.8-4.1 9.7-4.1 9.7l-1.8-9.3.4-5.1z"/></g></g><path class="st6" d="M50.4 450.1h419.2" id="Line"/></svg>