<svg id="Layer_1" xmlns="http://www.w3.org/2000/svg" viewBox="0 0 500 500"><style>.st0{fill:#ba9765}.st2,.st3{stroke:#263238;stroke-linecap:round;stroke-linejoin:round}.st2{stroke-miterlimit:10;fill:none}.st3{fill:#c9c9c9}.st3,.st4,.st5{stroke-miterlimit:10}.st4{stroke:#263238;stroke-linecap:round;stroke-linejoin:round;fill:#fff}.st5{fill:#878787}.st5,.st7,.st8{stroke:#263238;stroke-linecap:round;stroke-linejoin:round}.st7{stroke-width:1;fill:#fff;stroke-miterlimit:10.0002}.st8{fill:#ba9765;stroke-miterlimit:10}.st9{fill:#919191}.st11,.st9{stroke:#263238;stroke-linecap:round;stroke-linejoin:round;stroke-miterlimit:10}.st11,.st12{fill:#263238}.st13,.st14,.st16{fill:none;stroke:#919191;stroke-linecap:round;stroke-linejoin:round;stroke-miterlimit:10}.st14,.st16{stroke:#fff}.st16{stroke:#263238;stroke-width:2}.st17{opacity:.3;fill:#263238;enable-background:new}</style><g id="Background_Simple"><path class="st0" d="M477.7 230.8c-5.2-25.6-14.4-50.7-25.4-73.6-18.9-39.7-49.8-72.6-89.3-92.2-97-48-167-28-205 11s-27 106-68 135-70 42-72 95 24 93 66 106 105 55 231 31 157-91 165-139c4-24.2 2.6-48.9-2.3-73.2z"/><path d="M477.7 230.8c-5.2-25.6-14.4-50.7-25.4-73.6-18.9-39.7-49.8-72.6-89.3-92.2-97-48-167-28-205 11s-27 106-68 135-70 42-72 95 24 93 66 106 105 55 231 31 157-91 165-139c4-24.2 2.6-48.9-2.3-73.2z" opacity=".7" fill="#fff"/></g><g id="Bookshelf"><path class="st2" d="M157.1 136.6V77.5M157.1 432.4V142.5"/><path class="st3" d="M173.3 84.5h9.1v40.2h-9.1z"/><path class="st4" d="M173.3 90.6h9.1v3.9h-9.1zM173.3 115.5h9.1v3.9h-9.1z"/><path class="st5" d="M180.2 84.5h12.7v40.2h-12.7z"/><path class="st3" d="M182.9 84.5h9.1v40.2h-9.1z"/><path class="st4" d="M182.9 90.6h9.1v3.9h-9.1zM182.9 115.5h9.1v3.9h-9.1z"/><path class="st5" d="M189.9 84.5h12.7v40.2h-12.7z"/><g><path class="st3" d="M192.6 84.5h9.1v40.2h-9.1z"/><path class="st4" d="M192.6 90.6h9.1v3.9h-9.1zM192.6 115.5h9.1v3.9h-9.1z"/><path class="st3" d="M199.5 84.5h12.7v40.2h-12.7z"/></g><g><path class="st4" d="M220.5 125.1h21.3l5.6-5.1h-26.9z"/><path class="st4" d="M245 125.3l-.7-1.1-24.3-.1.7 1.2z"/><path transform="rotate(-30.037 214.289 104.99)" fill="#c9c9c9" stroke="#263238" stroke-linecap="round" stroke-linejoin="round" stroke-miterlimit="10" d="M209.8 84.9h9.1v40.2h-9.1z"/><path transform="rotate(-30.037 208.243 94.534)" class="st7" d="M203.7 92.6h9.1v3.9h-9.1z"/><path transform="rotate(-30.037 220.713 116.097)" class="st7" d="M216.2 114.1h9.1v3.9h-9.1z"/><path class="st3" d="M247.3 120.3H228l-20.1-34.8 19.3.1z"/></g><g><path class="st8" d="M257.8 104.8s-3.5-1.2-4.5-6.8-2.8-13.2-.8-15 5.8-2.8 6.2.8-.2 10.2.5 11.8 3.2.5 3.2-2.5c0-4.9-2-10-1.3-15 1-6.9 8-7.7 8.8 0 .4 4.2.5 8.6.5 12.8 0 1.8 3 2.8 2.8-1.5-.2-3 2-6.5 5-5.5s.5 14.2-.5 16.5-7.3 2.8-7.3 2.8v5.8H263l-.2-5.8s-2.6 1.6-5 1.6z"/><path class="st2" d="M264.5 93.8c.1 1.2.2 2 .2 2M265 74.4s-1.6 1.1-1.5 4.6c.1 2.1.5 7.8.8 12M267.8 86.2l.3 8.4M271.5 100c-1 .2-1.8.2-1.8.2M276.7 85.9s-.9 1.5-.9 3.6.1 7.6-1.1 9.1c-.3.3-.7.6-1.1.8M255 97.2c.5 1.8 1.2 3.3 2.1 4 2.3 1.8 4.4.1 4.4.1M254.8 83.7s-2.5 0-1.6 4.4c.4 1.9.7 4.2 1.2 6.3M264.3 100.5l.5 5.5"/><path class="st4" d="M277.2 106.5l-.9 7.5-.6 5-.7 5.9h-18l-.7-5.9-.6-5-.9-7.5z"/><path class="st8" d="M276.3 114l-.6 5h-19.4l-.6-5z"/></g><g><path class="st4" d="M171.7 125h115.5v7.6H171.7z"/><path class="st4" d="M260.5 125h26.6v7.6h-26.6z"/><path class="st9" d="M257.9 132.6c12.4 4.6 10.1 13.2 10.1 13.2h11.7v-13.2h-21.8z"/><path class="st4" d="M261.9 132.6c12.4 4.6 10.1 13.2 10.1 13.2h11.7v-13.2h-21.8z"/><g><path class="st9" d="M178.7 132.6c12.4 4.6 10.1 13.2 10.1 13.2h11.7v-13.2h-21.8z"/><path class="st4" d="M182.6 132.6c12.4 4.6 10.1 13.2 10.1 13.2h11.7v-13.2h-21.8z"/></g></g></g><g id="Picture"><path class="st9" d="M344.5 86h103.6v143.8H344.5z"/><path class="st0" d="M349 92.2h94.6v131.3H349z"/><path opacity=".5" fill="#fff" d="M349 92.2h94.6v131.3H349z"/><path class="st2" d="M369.8 213.5c-2.9 4.4-6.2 7.6-9.5 10h83.2V92.2h-15.3c-.7.2-1.3.4-2 .6-15 4.7-30.5 18.4-39.3 43.3"/><path class="st2" d="M385.5 140.5c-3.2 10.3-5.2 22.5-5.7 36.5-.5 14.8-3.7 25.5-7.9 33.2M434.3 125.5c-13.7 8-29.8 21.4-35.7 42-3.2 11-.2 20.9 5.8 29.4M407.5 201.1c8.3 9.7 20 17.3 29.5 22.4h6.5V120.7c-1.9.9-3.8 1.9-5.9 3M364.7 126.4c7.2-14.8 8-26.5 7.2-34.2H349v60.1c3.4-4.8 7.5-11.2 12.5-19.9.3-.5.6-1 .9-1.6M373.7 183.3c-1.1 7.3-4.5 12.5-8.4 12.5-4.9 0-8.8-8-8.8-17.9 0-9.9 3.9-17.9 8.8-17.9s8.8 8 8.8 17.9M377.8 141.2c0 3.8-1.7 6.9-3.8 6.9s-3.8-3.1-3.8-6.9 1.7-6.9 3.8-6.9 3.8 3.1 3.8 6.9z"/><path class="st2" d="M425.8 170.4c3.6 1.7 6 4.7 6 8.2 0 5.4-5.9 9.7-13.2 9.7-7.3 0-13.2-4.4-13.2-9.7 0-5.4 5.9-9.7 13.2-9.7 1.2 0 2.4.1 3.5.3"/><path class="st2" d="M424.2 178.5c0 2.3-2.5 4.1-5.5 4.1s-5.5-1.8-5.5-4.1 2.5-4.1 5.5-4.1 5.5 1.9 5.5 4.1zM433.1 153.7c0 3.1-3.1 5.7-6.9 5.7s-6.9-2.5-6.9-5.7 3.1-5.7 6.9-5.7 6.9 2.6 6.9 5.7z"/><ellipse class="st2" cx="383.2" cy="110.7" rx="4.7" ry="11.6"/><path class="st2" d="M396 210.6c0 3.6-3 6.6-6.6 6.6s-6.6-3-6.6-6.6 3-6.6 6.6-6.6 6.6 2.9 6.6 6.6zM426.8 112.6c0 2.3-1.8 4.1-4.1 4.1s-4.1-1.8-4.1-4.1 1.8-4.1 4.1-4.1 4.1 1.8 4.1 4.1zM401.1 141.5c0 1.2-1 2.2-2.2 2.2s-2.2-1-2.2-2.2 1-2.2 2.2-2.2 2.2 1 2.2 2.2z"/><path class="st2" d="M349 92.2h94.6v131.3H349z"/></g><g id="Device"><path class="st11" d="M263.3 279.4H289v9.7h-25.7z"/><path class="st9" d="M323.5 280.8H221.2l4.9-79.2h102.2z"/><path class="st11" d="M320.5 280.8H218.3l4.8-79.2h102.3z"/><path class="st4" d="M315.1 276.4h-90.9l4.3-70.4h90.9z"/><g><path class="st9" d="M288.7 265.9h-61.8l3.4-54.3H292z"/><path class="st4" d="M251.3 242.6s-12.9 5.1-12.9 6.5c-.1 1.4-2.6 16.9-2.6 16.9H274l-3.2-17.8-14.1-5.9-5.4.3z"/><path class="st4" d="M251.7 239.5s-1.6.4-2.6 1.4-2.2 4.3-2.2 4.3v3.9l5.1-2.7 5.1-.4 4.8 4.5.6-6.9s-.7-3.9-2.3-4.1c-1.6-.2-8.5 0-8.5 0z"/><path class="st4" d="M251.5 235.8l-.2 6.8 3 4.9 5-5.1.8-6.3z"/><path class="st4" d="M263.9 227.7c-.4 5.8-4.2 12.7-8.4 12.7s-7.2-7-6.8-12.7c.4-5.8 4-10.4 8.2-10.4s7.3 4.7 7 10.4z"/><path class="st4" d="M248.6 228.5s-1.4-3.5-1.9-.8c-.6 2.7 2.2 5.7 2.2 5.7l-.3-4.9zM263.9 227.7s3.3-1.4 2.3 1.5-3.4 3.7-3.4 3.7l1.1-5.2zM255.1 228.5c.1-1.5-1.1-2.7-2.6-2.7s-2.8 1.2-2.9 2.7c-.1 1.5 1.1 2.7 2.6 2.7s2.8-1.2 2.9-2.7z"/><path class="st2" d="M261.8 228.5l3-.8"/><path class="st4" d="M261.8 228.5c.1-1.5-1.1-2.7-2.6-2.7s-2.8 1.2-2.9 2.7c-.1 1.5 1.1 2.7 2.6 2.7s2.8-1.2 2.9-2.7z"/><path class="st11" d="M256.2 216.2s-3-1.6-5.3-.6-3.9 6.3-3.8 7.6 1.4 5.3 1.4 5.3l2.4-6.9 6.2-2.7-.9-2.7z"/><path class="st11" d="M253.2 217.5s4.9-3.9 8.9-2c4 2 3.6 5.5 3.5 6.5s-.1 5.5-.1 5.5l-2.4.4-1.1-3.7s-1.9-.7-3.9-1.9c0 0-5.3-.7-4.9-4.8z"/><path class="st4" d="M255.1 228.5l-.3 5.7h1.3"/><path class="st2" d="M254 236.3h3M254.3 247.5l-1.1 17.9M270.8 248.1s-4.1 9.2-4.2 11.2-.6 6.3-.6 6.3M238.4 249.1s4.1 7.1 4.6 8c.5 1-.1 8.4-.1 8.4"/><path class="st4" d="M273.5 254.8l1.3-6.1 2.3-2.4 2.2-3.5h1l-1.2 3.7 3-1.7 2-3.2 1.1.6-2.8 7.3-4.4 2.1-.8 3z"/><path class="st4" d="M277.3 265.9l.4-12.1-4.5-.8-3.5 12.9zM288.4 270.5h-61.7l.2-4.6h61.8z"/><path class="st2" d="M229.2 267.7h56.6"/><g><path class="st8" d="M315.2 226.1h-20.8l.9-14.3h20.8z"/><path class="st4" d="M315.2 226.1h-20.8l.2-2.3h20.8zM308.5 218.2l-5.4-3.3-.4 6.5z"/></g><g><path class="st8" d="M313.9 248.3h-20.8l.9-14.3h20.7z"/><path class="st4" d="M313.9 248.3h-20.8l.1-2.4H314zM307.2 240.3l-5.4-3.2-.4 6.4z"/></g><g><path class="st8" d="M312.5 270.5h-20.8l.9-14.4h20.8z"/><path class="st4" d="M312.5 270.5h-20.8l.2-2.4h20.8zM305.8 262.5l-5.4-3.3-.4 6.5z"/></g><g><path class="st2" d="M294.5 228.5h20.2M294.4 230.9h20.1"/></g><g><path class="st2" d="M293.1 250.8h20.2M293 253.2h20.2"/></g></g><path class="st4" d="M284.2 289.1H269c0-3.2 2.6-5.7 5.7-5.7h3.7c3.2 0 5.8 2.5 5.8 5.7z"/><g><path class="st9" d="M187.5 285.9h74.2v3.1h-74.2z"/><path class="st4" d="M243.1 285.9h18.6v3.1h-18.6z"/></g></g><g id="Table"><path class="st9" d="M292.1 309.8l9 121.3c.1.9.8 1.6 1.7 1.6 1 0 1.8-.8 1.7-1.8l-1.3-121.2-11.1.1z"/><path class="st4" d="M298.9 309.8l4.8 122.7c.5-.3.9-.9.9-1.5l-1.3-121.2h-4.4z"/><path class="st9" d="M348.6 309.8l9 121.3c.1.9.8 1.6 1.7 1.6 1 0 1.8-.8 1.7-1.8l-1.3-121.2-11.1.1z"/><path class="st4" d="M354.9 309.8l5.5 122.6c.4-.3.7-.8.7-1.4l-1.3-121.2h-4.9z"/><path class="st11" d="M199.5 311.1l-9 120c-.1.9-.8 1.6-1.7 1.6-1 0-1.8-.8-1.7-1.8l1.3-120.2 11.1.4zM142.9 311.1l-9 120c-.1.9-.8 1.6-1.7 1.6-1 0-1.8-.8-1.7-1.8l1.3-120.2 11.1.4z"/><path class="st9" d="M128.5 291.9h234.6v18.9H128.5z"/><path class="st4" d="M295.8 291.9H363v18.9h-67.2z"/><path class="st11" d="M128.5 294.9h234.6v5.2H128.5z"/><path class="st9" d="M125.1 289.2h241.4v6.3H125.1z"/><path class="st4" d="M300.2 289.2h66.3v6.3h-66.3z"/></g><g id="Text_Baloon"><path class="st4" d="M295.3 172h-32.6c-3.5 0-6.4 2.9-6.4 6.4v12c0 3.5 2.9 6.4 6.4 6.4h17.1l-6.4 17.8 12.2-17.8h9.7c3.5 0 6.4-2.9 6.4-6.4v-12c0-3.5-2.9-6.4-6.4-6.4z"/><circle class="st12" cx="270.3" cy="184.8" r="2.3"/><circle class="st12" cx="279" cy="184.8" r="2.3"/><path class="st12" d="M290.1 184.8c0-1.3-1-2.3-2.3-2.3s-2.3 1-2.3 2.3c0 1.3 1 2.3 2.3 2.3s2.3-1 2.3-2.3z"/></g><g id="Floor"><path class="st2" d="M450 433h27M24 433h412"/></g><g id="Character"><path class="st4" d="M182.6 256.3c-2.9-5-11.5-24.2-11.5-24.2s.5-4.1 1.3-6.1c.7-2 2.5-8.1 2.1-9.3-.4-1.3-5.6-3.6-6.1-3.8-.5-.2.7-3.2-1.3-3.9-2-.7-2.7.4-2.7.4l-.7 5-2.3 3.6s-1.4-1.1-3-2c-1.6-.9-5.4-1.3-5.6.2s3 2.7 4.1 3.6c1.1.9 2.5 5.2 3.8 6.4 1.3 1.3 3.2 3.9 3.2 3.9l.7 2.3s2.5 23.6 2.7 29.5c.3 5.9 1.2 21.4 2.9 23.7 1.8 2.3 2.1 3.8 7 2.1s5.9-4.1 7-9.4c1.4-5.3 1.4-17-1.6-22z"/><path class="st8" d="M184.4 278.3c1.2-5.3 1.2-17-1.8-22-.3-.5-.7-1.3-1.1-2.1-6.6-1.9-12.9 1.2-12.9 1.2l-1.6.7c.2 2.4.4 4.5.4 5.7.3 5.9 1.2 21.4 2.9 23.7 1.8 2.3 2.1 3.8 7 2.1 5-1.7 5.9-4.1 7.1-9.3z"/><path class="st4" d="M161.3 176.9s1.2 4.2 1.2 8.1-1.2 6.3.6 7.5 3.3 1.2 3 3.6c-.3 2.4-1.5 3.6-1.5 3.6s-.6 12.3-1.2 13.5c-.6 1.2-8.4-.3-10.2-.6s-6.9 2.1-10.2-4.5c-3.3-6.6-.6-16.6 5.4-21.7 5.9-4.9 12.9-9.5 12.9-9.5z"/><path class="st2" d="M162.5 185.1s-1.6-1.2-2.5.9M161 190.1s-.4 1.9.2 3.6M164 204.2s-1.9.6-2.6-1.5"/><g><path class="st4" d="M167.4 260.8s-1 4.6-1.9 7-16.9 6.9-23.8 7.8c-6.9.9-13.8.9-13.8.9l.4 12.7s13.5.3 14.4 0c1-.2 23.6-10.4 23.6-10.4l9.8-1.3s4.1-1 4.3-4.2-3.5-12.3-5.1-13.7c-1.6-1.4-5.1-5.2-7.2-2.8-2.1 2.3-.7 4-.7 4z"/><path class="st8" d="M137.4 283.5c0-5.5 1.4-5.6 3-7.8-6.5.8-12.5.7-12.5.7l-.3 11.6s7.4.7 11.9 1c-.4.7-2.1-2-2.1-5.5z"/></g><g><path class="st8" d="M180.9 308.1c-8.2-9.6-19.7-13.1-19.7-13.1l-17.6 7.5s-2.1-5.4-5.4-9.4l-3.3-4 2.1-11.5s12.6-8.7 14.3-12.4c0 0 0-.1.1-.1 2.5 3.9 13.6 20.9 15.6 22.6 2.3 1.9 9.4 2.1 12.4-.7s4.4-4.7 3.7-8.9c0 0-4.7-10.1-7.3-14.5-2.6-4.4-8.2-20.4-11-25.3-2-3.5-2.8-6-4.2-7.7-1.1-1.9-2.4-3.6-3.5-4.7-2.8-3-10.5-3.7-12.2-4.4-1.6-.7-1.9-.9-11.2-3.7-9.4-2.8-19.9-4.4-27.4 1.4 0 0-10.1 11.9-14 31.6s-4.2 39.6-4.7 43.1-4.4 20.6-5.6 30.4S91.1 344 97.4 347c6.3 3 33.5 3.5 49.4 0s41.2-19.4 41.2-19.4 1.1-9.9-7.1-19.5z"/><path class="st2" d="M139.5 264.9l-3.2-.1M138.3 259.8c6.3 2 13.1 5.5 13.1 5.5l-8.2-.3"/></g><g><path class="st4" d="M181.7 265.7s1.7 2.6 1.7 4.8c0 2.2.4 5.2-.6 4.2s-1.3-4.1-1.3-4.1l.2-4.9z"/><path class="st4" d="M176.2 263.1s3.5-1.9 5 .4 1.1 6.8 0 9c-1.1 2.3-2.4.1-2.3-1.9.2-2-2.7-7.5-2.7-7.5z"/><path class="st4" d="M174.9 260.7s3.5-1.9 5 .4 1.1 6.8 0 9c-1.1 2.3-2.4.1-2.3-1.9s-2.7-7.5-2.7-7.5z"/><path class="st4" d="M173.3 258.1s3.5-1.9 5 .4 1.1 6.8 0 9c-1.1 2.3-2.4.1-2.3-1.9.2-1.9-2.7-7.5-2.7-7.5z"/></g><g><path class="st11" d="M164.5 167.6c.1 3.8-1.1 7.8-2.7 10.2-5.1 7.8-9.9 6.9-12 13.2-2.1 6.3-5.1 12.9-1.8 16.6 3.3 3.6 6 1.5 6 1.5s2.1 5.4-3.3 10.8-14.8 3.3-17.2 2.4-4.2-2.4-4.2-2.4-1.5 4.2-9 4.2-16-5.1-16-14.5 5.1-15.7 6.3-19.3c1.2-3.6-2.1-14.8 3-21.7 5.1-6.9 12.9-12 19-12 6 0 17.7 3.3 17.8 3.3.8.4 5.9-1.6 7.2-1.5 5 .5 6.9 4.6 6.9 9.2z"/><path class="st13" d="M145 210.4c1 .1 2.1.2 3.3 0M160.2 172.9c-.4 2.4-1.3 5-2.9 7.5-4.7 7.3-10 10-16.4 17-4.1 4.5-3.3 9.1 0 11.4M160.3 165s.3 1.3.3 3.3"/><path class="st13" d="M153.9 172.1s-1 10.4-5.3 16.4c-4.3 6-13 9-12.7 15.4"/></g><g><path class="st4" d="M194.3 345.3s6.2 32.1 11.6 47.6c5.3 15.6 10.7 29.8 12 31.2s4.9 6.2 4.9 6.2-2.7 2.2-5.8 2.2-7.1-4-10.7-6.2-4-3.6-11.1-6.2-1.3-9.8.4-13.4c1.8-3.6 1.8-6.2 1.8-6.2s-3.6-14.7-14.7-27.2-13.3-41.3-13.3-41.3l21.4-8 3.5 21.3z"/><path class="st8" d="M217 422.5l-1.3.3s-7.6-10.2-13.4-13.8c-2.9-1.8-5.2-2.2-6.7-2.2-1.8 3.6-7.6 10.7-.4 13.4 7.1 2.7 7.6 4 11.1 6.2 3.6 2.2 7.6 6.2 10.7 6.2s5.8-2.2 5.8-2.2-3.6-4.9-4.9-6.2c-.2-.3-.5-.8-.9-1.7z"/><path class="st8" d="M213.4 431.3c-3.5-2.4-6.7-7.8-12.4-11.2-5.2-3.1-7.9-3.2-9.1-2.9.4 1.2 1.4 2.2 3.3 2.9 7.1 2.7 7.6 4 11.1 6.2 2.3 1.5 4.8 3.6 7.1 5zM217 432.6c-.2 0-.5 0-.7-.1.3.1.5.1.7.1z"/><path class="st4" d="M154.6 297s21.4-7.6 23.4-2.6 11.2 23.6 7.8 31.3c-3.3 7.7-26.8-22-30.2-22.6-3.2-.7-1.4-3.9-1-6.1z"/><path class="st4" d="M175.6 306.8s24.3-2 29 2.3-11.3 56.3-20 72.7c-13.6 25.5-9.5 32.2-9.5 32.2s1 4 7.7 10.3c6.7 6.3 8.7 7.3 6.3 8.3-2.3 1-12.3 0-13.3-.7s-8.3-6.7-15-8.7-5.7-3.3-2.7-9.3 2.7-1 6-11.3c3.6-11.2 7.5-27.3 9.4-38.9 1.8-10.7 4.5-22.5 3.7-33.4.1.1-1.6-23.5-1.6-23.5z"/><path class="st11" d="M193.4 323.1s-3.1-8.9-12.6-14.9c-10.6-6.8-19.7-13.1-19.7-13.1l-17.6 7.5s4.3 7.3-17.7 10.9c-16.9 2.8-32.5-1.3-40.9-6.2-1.2 5.8-2.4 12.3-3 17-1.2 9.8 9.1 19.7 15.4 22.7 6.3 3 57.2 9.4 71 .6 25.1-16.1 25.1-24.5 25.1-24.5z"/><path class="st8" d="M141.7 308c-2.3 1.9-6.9 4-15.7 5.4-16.9 2.8-32.5-1.3-40.9-6.2-.3 1.5-.6 3-.9 4.6 5.7 3.5 17.8 9.3 31.4 7.6 16.2-2 23.5-6.4 26.1-11.4z"/><g><path class="st14" d="M128.7 329.4l-2.4 3M140.9 310.4s-4.2 8-10.3 16.3M133.6 316.8s-6 8-12.3 12.7"/></g><g><path class="st8" d="M182.8 424.3c-6.7-6.3-7.7-10.3-7.7-10.3s-.3-.2-.5-.7c-.5.5-1.8 1.4-5.1.1-2.9-1.1-5.6-3-8.5-4.3-.7 1.2-1.4 2-2.8 4.9-3 6-4 7.3 2.7 9.3 6.7 2 14 8 15 8.7s11 1.7 13.3.7c2.2-1 .2-2-6.4-8.4z"/><path class="st2" d="M188.9 326.4l11.4-7"/></g></g><g><path class="st9" d="M53.4 263.1s36.1-4.5 59.2 2l3.5 87.8H62s3.5-47.2-8.6-89.8z"/><path d="M112.7 265.1c-23.1-6.5-59.2-2-59.2-2 4.1 14.6 6.4 29.8 7.7 43.4 16 8 35.9 20.4 54.7 39l-3.2-80.4z" fill="#757575" stroke="#263238" stroke-linecap="round" stroke-linejoin="round" stroke-miterlimit="10"/><path class="st4" d="M180.8 435c-.8 0-1.6-.5-1.9-1.3-8-21.6-10-77.5-10.1-79.9 0-1.1.8-2 1.9-2.1 1.1 0 2 .8 2.1 1.9 0 .6 2.1 57.7 9.9 78.6.4 1-.1 2.2-1.2 2.6-.3.2-.5.2-.7.2zM137.2 435c-.8 0-1.6-.5-1.9-1.3-8-21.6-10-77.5-10.1-79.9 0-1.1.8-2 1.9-2.1 1.1 0 2 .8 2.1 1.9 0 .6 2.1 57.7 9.9 78.6.4 1-.1 2.2-1.2 2.6-.2.2-.5.2-.7.2z"/><path class="st9" d="M180.2 352.8H61.1v-4h115.2c2.1.1 3.9 1.8 3.9 4z"/><path class="st4" d="M61.1 351.9h119.2v4H61.1z"/><g><path class="st4" d="M111.8 435h-.4c-1.1-.2-1.8-1.3-1.5-2.4 11.3-53.6 1-166.2.9-167.4-.1-1.1.7-2.1 1.8-2.2 1.1-.1 2.1.7 2.2 1.8.1 1.1 10.5 114.4-.9 168.6-.4 1-1.2 1.6-2.1 1.6z"/></g><g><path class="st4" d="M49.8 433.5c-.2 0-.4 0-.5-.1-1.1-.3-1.7-1.4-1.4-2.5 26-92.3 3.9-166.6 3.7-167.4-.3-1.1.3-2.2 1.3-2.5 1.1-.3 2.2.3 2.5 1.3.2.8 22.7 76.1-3.7 169.6-.3 1.1-1.1 1.6-1.9 1.6z"/></g></g></g><g id="Plants"><path class="st16" d="M415.4 268.6s-12.3-6.8-13.2 8.6c-.9 15.5-3.2 116.1-3.2 116.1M395.8 278.7s10 22.3 5.5 113.4"/><path class="st0" d="M405.6 271.8s-4.7 3-7.4-.4 1.8-9.8-2.1-12.5c-4-2.7-10.8 1.4-10.8 1.4s5.3 1.5 5.1 4.4c-.2 2.9-2.7 4-3 2.7s-2.8-7.6-7.1-4.9c-4.3 2.6-4.9 6.7-4.9 6.7s9.9-1.1 10.5 2.7-4.1-.7-8.2-.9c-4.1-.2-7.8.4-7.6 2.8.3 2.5-.4 6.6-.4 6.6s3.5-3.1 8-2.8 4.3 3.1.2 2.9c-4.1-.2-7.6 3.7-7.6 3.7s3.7 6.4 8.5 9.5 6.5 2 7-.4-.7-8.7 2.1-8.5c2.9.2-4.8 10.8-1.1 11.5 3.7.6 6.6-.4 7.6-2.8l1-2.4s-1.3-6.2-.7-8.7c.6-2.4 1.2.1 1.9 3 .6 2.9 1.1 9.9 2.3 9.6s5.3-5.4 6.2-7.4c.9-2-5.3-8.1-5.2-9.4.1-1.2 4.9 1.1 5.6 2.4s1.5 3 1.5 3 3-1.9 2.9-7.6c0-6-4.3-4.2-4.3-4.2z"/><path class="st17" d="M405.6 271.8s-4.7 3-7.4-.4 1.8-9.8-2.1-12.5c-4-2.7-10.8 1.4-10.8 1.4s5.3 1.5 5.1 4.4c-.2 2.9-2.7 4-3 2.7s-2.8-7.6-7.1-4.9c-4.3 2.6-4.9 6.7-4.9 6.7s9.9-1.1 10.5 2.7-4.1-.7-8.2-.9c-4.1-.2-7.8.4-7.6 2.8.3 2.5-.4 6.6-.4 6.6s3.5-3.1 8-2.8 4.3 3.1.2 2.9c-4.1-.2-7.6 3.7-7.6 3.7s3.7 6.4 8.5 9.5 6.5 2 7-.4-.7-8.7 2.1-8.5c2.9.2-4.8 10.8-1.1 11.5 3.7.6 6.6-.4 7.6-2.8l1-2.4s-1.3-6.2-.7-8.7c.6-2.4 1.2.1 1.9 3 .6 2.9 1.1 9.9 2.3 9.6s5.3-5.4 6.2-7.4c.9-2-5.3-8.1-5.2-9.4.1-1.2 4.9 1.1 5.6 2.4s1.5 3 1.5 3 3-1.9 2.9-7.6c0-6-4.3-4.2-4.3-4.2z"/><path class="st2" d="M381.8 285.3c3.1-3.8 7.6-8.9 11.4-11.4M378.3 289.9s.8-1.1 2.1-2.7M395.2 274.9s4.6 6.4 5.4 13.1M390 278.7s1.3-.7.8 7.5M393.4 271s2.6-2.3 1.2-6.9M389.8 274.9l-1.8-3.4M385.9 278.4s-5.9-4.5-9.6-4.7"/><path class="st0" d="M422.4 259.6s-.2 6.8-5.5 7.1c-5.3.3-8.5-8.5-13.9-6.4-5.4 2.1-5.9 11.8-5.9 11.8s5.1-4.2 7.9-2.1c2.8 2.1 2.1 5.4.6 4.9s-9.5-2.3-9.8 3.8c-.3 6.1 3.4 9.5 3.4 9.5s5.7-10.7 9.9-8.7-3.4 3.6-6.5 7.6c-3 3.9-5 8.1-2.3 9.5 2.7 1.4 6.3 4.9 6.3 4.9s-.7-5.6 2.6-9.9c3.3-4.3 6.1-2.2 3.1 1.7-3 3.9-1.5 10.1-1.5 10.1s8.9.6 15.3-2 6.4-5.1 4.4-7.3c-2.1-2.2-9.2-5.2-7.1-8 2.1-2.8 7.6 12.1 10.7 8.9s4.1-6.9 2.3-9.5l-1.8-2.6s-7.1-3-9.2-5.2.9-1.2 4.3.2c3.4 1.3 10.7 5.7 11.2 4.2s-1.9-9-3.2-11.3c-1.4-2.3-11.7-.3-12.9-1.2-1.2-.9 4.4-4.1 6.2-4 1.8.1 4 .5 4 .5s.2-4.3-5.7-8.1c-5.8-3.8-6.9 1.6-6.9 1.6z"/><path d="M422.4 259.6s-.2 6.8-5.5 7.1c-5.3.3-8.5-8.5-13.9-6.4-5.4 2.1-5.9 11.8-5.9 11.8s5.1-4.2 7.9-2.1c2.8 2.1 2.1 5.4.6 4.9s-9.5-2.3-9.8 3.8c-.3 6.1 3.4 9.5 3.4 9.5s5.7-10.7 9.9-8.7-3.4 3.6-6.5 7.6c-3 3.9-5 8.1-2.3 9.5 2.7 1.4 6.3 4.9 6.3 4.9s-.7-5.6 2.6-9.9c3.3-4.3 6.1-2.2 3.1 1.7-3 3.9-1.5 10.1-1.5 10.1s8.9.6 15.3-2 6.4-5.1 4.4-7.3c-2.1-2.2-9.2-5.2-7.1-8 2.1-2.8 7.6 12.1 10.7 8.9s4.1-6.9 2.3-9.5l-1.8-2.6s-7.1-3-9.2-5.2.9-1.2 4.3.2c3.4 1.3 10.7 5.7 11.2 4.2s-1.9-9-3.2-11.3c-1.4-2.3-11.7-.3-12.9-1.2-1.2-.9 4.4-4.1 6.2-4 1.8.1 4 .5 4 .5s.2-4.3-5.7-8.1c-5.8-3.8-6.9 1.6-6.9 1.6z" opacity=".2" fill="#263238"/><path class="st2" d="M419.7 292.7c-1.7-5.7-3.8-13.7-3.6-19.1M421.9 299.4s-.6-1.5-1.3-3.9M418.4 272.2s9.6-.2 16.8 3.5M418.7 280s.1-1.8 8 4.3M413.3 271.4s-.5-4.2-6.1-5.9M414.8 277.6l-4.7-.4M415.6 283.9s-8.5 2.9-11.2 6.4"/><path class="st16" d="M365.8 304.6s26.9 17.8 26.4 86.5"/><g><path class="st0" d="M398.9 299.9s-.9 7.8-7 7.7c-6.1-.1-9.1-10.6-15.5-8.6s-7.9 13-7.9 13 6.3-4.4 9.3-1.7c3 2.7 1.9 6.4.3 5.7-1.7-.7-10.8-3.6-11.7 3.4-.9 7 3 11.3 3 11.3s7.6-11.8 12.2-9.1c4.6 2.6-4.3 3.9-8.2 8.1-3.9 4.3-6.5 8.9-3.6 10.8 2.9 1.9 6.8 6.2 6.8 6.2s-.3-6.5 4-11.2c4.3-4.7 7.2-2 3.4 2.3s-2.7 11.5-2.7 11.5 10.3 1.6 17.9-.8c7.6-2.4 7.9-5.3 5.7-8-2.2-2.8-10.1-6.9-7.4-9.8 2.7-3 7.6 14.7 11.5 11.3 3.9-3.4 5.3-7.6 3.6-10.8l-1.8-3.2s-7.9-4.1-10.1-6.9c-2.2-2.8 1.2-1.3 4.9.6 3.8 1.9 11.8 7.6 12.5 5.9s-1.3-10.5-2.7-13.3c-1.4-2.8-13.5-1.4-14.8-2.6-1.3-1.2 5.5-4.3 7.6-4 2.1.3 4.5 1 4.5 1s.6-4.9-5.8-9.9c-6.3-5.1-8 1.1-8 1.1z"/><path class="st17" d="M398.9 299.9s-.9 7.8-7 7.7c-6.1-.1-9.1-10.6-15.5-8.6s-7.9 13-7.9 13 6.3-4.4 9.3-1.7c3 2.7 1.9 6.4.3 5.7-1.7-.7-10.8-3.6-11.7 3.4-.9 7 3 11.3 3 11.3s7.6-11.8 12.2-9.1c4.6 2.6-4.3 3.9-8.2 8.1-3.9 4.3-6.5 8.9-3.6 10.8 2.9 1.9 6.8 6.2 6.8 6.2s-.3-6.5 4-11.2c4.3-4.7 7.2-2 3.4 2.3s-2.7 11.5-2.7 11.5 10.3 1.6 17.9-.8c7.6-2.4 7.9-5.3 5.7-8-2.2-2.8-10.1-6.9-7.4-9.8 2.7-3 7.6 14.7 11.5 11.3 3.9-3.4 5.3-7.6 3.6-10.8l-1.8-3.2s-7.9-4.1-10.1-6.9c-2.2-2.8 1.2-1.3 4.9.6 3.8 1.9 11.8 7.6 12.5 5.9s-1.3-10.5-2.7-13.3c-1.4-2.8-13.5-1.4-14.8-2.6-1.3-1.2 5.5-4.3 7.6-4 2.1.3 4.5 1 4.5 1s.6-4.9-5.8-9.9c-6.3-5.1-8 1.1-8 1.1z"/><path class="st2" d="M392.6 337.8c-1.4-6.7-3-16.1-2.4-22.4M394.5 345.8s-.5-1.8-1.2-4.7M393 314.1s11 .7 19 5.6M392.6 323s.3-2.1 8.8 5.7M387.3 312.7s-.2-4.9-6.5-7.4M388.4 320l-5.3-1M388.8 327.3s-10.1 2.5-13.6 6.3"/></g><path class="st16" d="M376.2 358.8s17.3 13.2 19.1 32.8l-3.6-65.6M418.1 349.2c-22.8-4.1-22.8 42.3-22.8 42.3M398.1 391.1s-13.2-96.1 25-96.1"/><g><path class="st0" d="M409.4 346.5c-3.1-3.5-9.7-3.5-13.6 5.4-3.9 8.9-.4 7.4-.4 7.4s7.4-2.3 12-3.9 10.9-5.4 11.3-3.1c.4 2.3-3.1 4.7-7.4 5.4-4.3.8-15.5 3.9-14.4 6.2s3.9 9.3 3.9 9.3 5.4-4.7 10.5-7.8c5.1-3.1 8.2-1.9 5.4 1.6-2.7 3.5-10.5 7.4-8.9 12 1.6 4.7 10.9 10.5 10.9 10.5s1.2-9.7 3.9-12.8c2.7-3.1 2.7.4 1.9 5.8-.8 5.4-.8 7-.8 7l10.9 3.9s3.9-5.8 5.8-7.8l1.9-1.9s-8.6-7.4-8.9-12c-.4-4.7 5.8 0 7.8.8 1.9.8 5.1 6.2 5.1 6.2s1.9-8.9 2.3-12l.4-3.1s-8.2-3.1-11.3-3.1-4.7 2.3-4.7-.8 3.1-5.1 6.6-4.7 9.3 2.3 9.3 2.3 2.3-1.9 1.6-7.8c-.8-5.8-2.7-5.8-7.4-4.3s-7.8 5.1-11.3 5.1-1.6-4.3.8-5.4c2.3-1.2 8.2-3.5 9.3-3.9 1.2-.4-6.2-5.8-10.1-6.6-3.9-.8-8.9 2-8.6 5.8 1 8.2-10.7 9.8-13.8 6.3z"/><path class="st2" d="M434.5 386.5c.1 1.2.2 2.3.2 3.5M426.7 358.6c2.7 6.3 5.9 15 7.3 24.1M425.3 355.5c-1.9-4.1-3.4-6.7-3.4-6.7s3.5-1.6 5.1-4.7c1.6-3.1 3.9-4.7 3.9-4.7M408.3 362s14-5.8 14-4.7M430 354.6s6.2-3.1 11.7-3.1M427.7 364s-3.5 2.7-7.4 7.4c-3.9 4.7-5.4 8.9-5.4 8.9M432 365.5s8.2-2.3 12.4 1.6"/></g><g><path class="st0" d="M446.8 313c-4.2-2.5-8.9-2.6-11.2-5.2-2.3-2.6 2.2-4 4.6-3 2.4 1 8 3.9 9 4.5 1.1.6.3-8.5-1.6-12s-7.3-5.5-10-2.6c-5.7 5.9-14.5-1.8-13.9-6.5.6-4.6-3.7-9.6-13-6.7-9.3 2.9-5.8 4.5-5.8 4.5s6.6 4 10.8 6.6c4.2 2.5 11.2 4.7 9.7 6.5s-5.6.7-9-2-13.1-9.2-14.1-6.8c-1 2.4-4.5 9-4.5 9s7.1 1.1 12.7 2.8 6.8 4.9 2.4 5.1c-4.4.2-12.5-3.1-15 1.1s-.8 15.1-.8 15.1 8.1-5.5 12.2-5.5 1.5 2.3-3.1 5.3-5.8 4-5.8 4l4.2 10.8s7-.9 9.7-.7l2.7.2s0-11.3 3.2-14.6c3.3-3.4 3.8 4.4 4.5 6.4.7 2-1.4 7.9-1.4 7.9s8-4.4 10.6-6.1l2.6-1.7s-3-8.2-5-10.5-4.8-2-2.5-4 5.9-1 7.9 1.9 4.4 8.6 4.4 8.6 3 .5 6.9-3.9c4.1-4.5 2.8-6-1.4-8.5zM410 325.4c-3.1-1.6 4.3-4.7 4.3-4.7 2.7-.3-1.2 6.3-4.3 4.7zm5.2-14.5c-1.3-.7 2.7-2 2.7-2 5.7 1.1-1.4 2.7-2.7 2z"/><path class="st2" d="M409.9 333.4c-.8.9-1.6 1.7-2.5 2.5M425.9 309.2c-3 6.2-7.5 14.3-13.4 21.3M427.3 306.1c1.9-4.2 2.8-6.9 2.8-6.9s3.5 1.6 6.8.8 6.1-.1 6.1-.1M423.9 305c.9-.8-12.7-7.5-12.7-7.5M431.1 309.1s6.4 2.7 10 6.8M422.5 313.5s-4.3-.9-10.4-.7c-6.1.1-10.3 1.8-10.3 1.8M424.1 317.7s7.1 4.6 7 10.4"/></g><g><path class="st0" d="M386.4 366.9c-3.4-2-7.2-2.1-9-4.2-1.8-2.1 1.8-3.2 3.7-2.4s6.4 3.1 7.3 3.6c.9.5.3-6.9-1.3-9.6s-5.9-4.4-8.1-2.1c-4.5 4.8-11.6-1.5-11.2-5.2s-3-7.8-10.5-5.4-4.7 3.7-4.7 3.7 5.3 3.3 8.7 5.3c3.4 2 9 3.7 7.8 5.2s-4.5.6-7.2-1.6-10.6-7.4-11.4-5.5-3.6 7.3-3.6 7.3 5.7.8 10.3 2.3c4.6 1.4 5.5 3.9 1.9 4.1-3.6.2-10-2.5-12 .9s-.6 12.1-.6 12.1 6.5-4.4 9.8-4.4 1.2 1.9-2.5 4.3-4.7 3.2-4.7 3.2l3.4 8.7s5.6-.7 7.8-.6l2.2.2s0-9.1 2.6-11.8 3.1 3.5 3.6 5.1-1.1 6.4-1.1 6.4 6.5-3.5 8.6-4.9l2.1-1.4s-2.4-6.6-4.1-8.5c-1.6-1.9-3.9-1.6-2-3.2s4.7-.8 6.3 1.6 3.5 6.9 3.5 6.9 2.4.4 5.5-3.2c3.3-3.8 2.3-4.9-1.1-6.9zm-29.6 10c-2.5-1.3 3.4-3.8 3.4-3.8 2.2-.3-.9 5-3.4 3.8zm4.2-11.7c-1.1-.5 2.1-1.6 2.1-1.6 4.6.9-1 2.1-2.1 1.6z"/><path class="st2" d="M356.7 383.2c-.6.7-1.3 1.4-2 2M369.5 363.8c-2.4 5-6 11.5-10.8 17.2M370.7 361.3c1.5-3.4 2.3-5.6 2.3-5.6s2.8 1.3 5.5.6c2.7-.7 4.9-.1 4.9-.1M357.8 354.4s10.9 5.4 10.2 6M373.7 363.7s5.2 2.1 8 5.4M366.8 367.2s-3.5-.7-8.4-.6c-4.9.1-8.3 1.4-8.3 1.4M368.1 370.7s5.7 3.7 5.6 8.4"/></g><g><path class="st0" d="M372.5 302.7s-4.3 3.1-7 0 1.2-9.3-2.7-11.7-10.1 1.9-10.1 1.9 5.1 1.2 5.1 3.9-2.3 3.9-2.7 2.7-3.1-7-7-4.3-4.3 6.6-4.3 6.6 9.3-1.6 10.1 1.9-3.9-.4-7.8-.4-7.4.8-7 3.1 0 6.2 0 6.2 3.1-3.1 7.4-3.1 4.3 2.7.4 2.7-7 3.9-7 3.9 3.9 5.8 8.6 8.6 6.2 1.6 6.6-.8c.4-2.3-1.2-8.2 1.6-8.2 2.7 0-3.9 10.5-.4 10.9s6.2-.8 7-3.1l.8-2.3s-1.6-5.8-1.2-8.2c.4-2.3 1.2 0 1.9 2.7s1.6 9.3 2.7 8.9c1.2-.4 4.7-5.4 5.4-7.4.8-1.9-5.4-7.4-5.4-8.6s4.7.8 5.4 1.9 1.6 2.7 1.6 2.7 2.7-1.9 2.3-7.4c-.4-5.1-4.3-3.1-4.3-3.1z"/><path class="st2" d="M350.7 316.8c2.7-3.8 6.7-8.9 10.1-11.4M347.6 321.3s.7-1.1 1.8-2.7M362.8 306.2s4.7 5.8 5.8 12M358.1 310.1s1.2-.8 1.2 7M360.8 302.7s2.3-2.3.8-6.6M357.7 306.6l-1.9-3.2M354.2 310.1s-5.8-3.9-9.3-3.9"/></g><path fill="#263238" stroke="#263238" stroke-width="2" stroke-linecap="round" stroke-linejoin="round" stroke-miterlimit="10" d="M381.7 389.8h30V433h-30z"/></g></svg>