<svg id="Layer_1" xmlns="http://www.w3.org/2000/svg" viewBox="0 0 500 500"><style>.st2{fill:none;stroke:#263238;stroke-linecap:round;stroke-linejoin:round;stroke-miterlimit:10}.st3{opacity:.3}.st4,.st5,.st6,.st7,.st9{fill:none;stroke:#000;stroke-miterlimit:10}.st5,.st6,.st7,.st9{fill:#fff;stroke:#263238;stroke-linecap:round;stroke-linejoin:round}.st6,.st7,.st9{fill:#ba9765}.st7,.st9{fill:#dbdbdb}.st9{stroke:#a8a8a8}.st11{fill:#263238}.st12{fill:#777a8c}.st14,.st15,.st16,.st17{fill:#263238;stroke:#263238;stroke-linecap:round;stroke-linejoin:round;stroke-miterlimit:10}.st15,.st16,.st17{fill:#9c9c9c}.st16,.st17{fill:#6e6e6e}.st17{fill:none;stroke:#fff}.st18,.st19,.st20{stroke:#263238;stroke-miterlimit:10}.st18{stroke-width:2;fill:none}.st19,.st20{fill:#ba9765}.st20{fill:none;stroke-width:.5}</style><g id="Background_Simple"><path d="M398.7 422.8c15.4-10.9 28.4-25.1 38.2-43.5 57.2-107.1 44.2-265-65.8-332.7C320.2 15.2 247-4.6 192 27.6c-44.6 26.1-71.9 75.2-94.6 119.8C83.2 175.5 71.5 205.7 54 232c-22.7 34.1-47.7 79.6-22.5 119.2 34.4 53.9 99.4 78.6 158.3 94.8 63.9 17.6 135.8 20.1 194.9-14.2 4.8-2.8 9.5-5.8 14-9z" fill="#ba9765"/><path d="M398.7 422.8c15.4-10.9 28.4-25.1 38.2-43.5 57.2-107.1 44.2-265-65.8-332.7C320.2 15.2 247-4.6 192 27.6c-44.6 26.1-71.9 75.2-94.6 119.8C83.2 175.5 71.5 205.7 54 232c-22.7 34.1-47.7 79.6-22.5 119.2 34.4 53.9 99.4 78.6 158.3 94.8 63.9 17.6 135.8 20.1 194.9-14.2 4.8-2.8 9.5-5.8 14-9z" opacity=".7" fill="#fff"/><path class="st2" d="M313.1 244s3.8.8 6-2.8"/></g><g class="st3" id="Picture"><path class="st4" d="M384 79h83v109h-83z"/><path class="st4" d="M399.2 99h52.5v69h-52.5z"/></g><g id="Floor"><path class="st2" d="M466 469h16M36 469h420"/></g><g class="st3" id="Window"><path class="st4" d="M41.5 44.5h94.9v267.1H41.5z"/><path class="st4" d="M42 52.6h94.3l-2.2-7.4M42 61.5h94.3l-2.2-7.4M42 70.4h94.3l-2.2-7.4M42 79.3h94.3l-2.2-7.4M42 88.2h94.3l-2.2-7.4M42 97h94.3l-2.2-7.3M42 105.9h94.3l-2.2-7.3M42 114.8h94.3l-2.2-7.3M42 123.7h94.3l-2.2-7.3M42 132.6h94.3l-2.2-7.3M42 141.5h94.3l-2.2-7.3M42 150.4h94.3l-2.2-7.3M42 159.3h94.3l-2.2-7.4M42 168.2h94.3l-2.2-7.4M42 177.1h94.3l-2.2-7.4M42 186h94.3l-2.2-7.4M42 194.9h94.3l-2.2-7.4M42 203.7h94.3l-2.2-7.3M42 212.6h94.3l-2.2-7.3M42 221.5h94.3l-2.2-7.3M42 230.4h94.3l-2.2-7.3M42 239.3h94.3l-2.2-7.3M42 248.2h94.3l-2.2-7.3M42 257.1h94.3l-2.2-7.4M42 266h94.3l-2.2-7.4M42 274.9h94.3l-2.2-7.4M42 283.8h94.3l-2.2-7.4M42 292.7h94.3l-2.2-7.4M42 301.5h94.3l-2.2-7.3"/><g><path class="st4" d="M143.6 44.5h94.9v267.1h-94.9z"/><path class="st4" d="M144.1 52.6h94.2l-2.2-7.4M144.1 61.5h94.2l-2.2-7.4M144.1 70.4h94.2l-2.2-7.4M144.1 79.3h94.2l-2.2-7.4M144.1 88.2h94.2l-2.2-7.4M144.1 97h94.2l-2.2-7.3M144.1 105.9h94.2l-2.2-7.3M144.1 114.8h94.2l-2.2-7.3M144.1 123.7h94.2l-2.2-7.3M144.1 132.6h94.2l-2.2-7.3M144.1 141.5h94.2l-2.2-7.3M144.1 150.4h94.2l-2.2-7.3M144.1 159.3h94.2l-2.2-7.4M144.1 168.2h94.2l-2.2-7.4M144.1 177.1h94.2l-2.2-7.4M144.1 186h94.2l-2.2-7.4M144.1 194.9h94.2l-2.2-7.4M144.1 203.7h94.2l-2.2-7.3M144.1 212.6h94.2l-2.2-7.3M144.1 221.5h94.2l-2.2-7.3M144.1 230.4h94.2l-2.2-7.3M144.1 239.3h94.2l-2.2-7.3M144.1 248.2h94.2l-2.2-7.3M144.1 257.1h94.2l-2.2-7.4M144.1 266h94.2l-2.2-7.4M144.1 274.9h94.2l-2.2-7.4M144.1 283.8h94.2l-2.2-7.4M144.1 292.7h94.2l-2.2-7.4M144.1 301.5h94.2l-2.2-7.3"/></g></g><g id="Screen"><path class="st5" d="M117.5 25.9h252.2v224.5H117.5z"/><path class="st6" d="M117.5 25.9h252.2V61H117.5z"/><path class="st7" d="M360.2 25.9h9.5v224.5h-9.5z"/><path fill="#949494" stroke="#263238" stroke-linecap="round" stroke-linejoin="round" stroke-miterlimit="10" d="M360.2 59.7h9.5V103h-9.5z"/><path class="st7" d="M117.5 25.9h252.2V43H117.5z"/><path class="st5" d="M130.3 30.9h99.5V38h-99.5z"/><path class="st2" d="M354.8 31.2h8.7M354.8 34.9h8.7M354.8 38.6h8.7"/><path class="st9" d="M159.5 87h160v6h-160z"/><path class="st6" d="M159.5 87h79.3v6h-79.3z"/><circle class="st6" cx="150.9" cy="91" r="14.7"/><circle class="st5" cx="150.9" cy="91" r="12.5"/><circle class="st6" cx="239.5" cy="91" r="14.7"/><circle class="st5" cx="239.5" cy="91" r="12.5"/><circle class="st9" cx="328.2" cy="91" r="14.7"/><circle cx="328.2" cy="91" r="12.5" fill="#fff" stroke="#a8a8a8" stroke-linecap="round" stroke-linejoin="round" stroke-miterlimit="10"/><path class="st11" d="M148.3 86.5c1.5 0 1.9-.7 2.2-1.6h1.3v12.6h-2v-9.6h-1.5v-1.4zM238.9 86.6c-.6 0-1 .3-1 1.2v1.4H236V88c0-2 1-3.2 3-3.2s3 1.2 3 3.2c0 4-4 5.5-4 7.5v.3h3.8v1.8H236V96c0-3.7 3.9-4.3 3.9-8 0-1.1-.4-1.4-1-1.4zM329.1 88c0-1.1-.4-1.4-1-1.4s-1 .3-1 1.2v.8h-1.9V88c0-2 1-3.2 3-3.2s3 1.2 3 3.2v.3c0 1.4-.4 2.2-1.4 2.6 1 .4 1.4 1.4 1.4 2.7v1c0 2-1 3.2-3 3.2s-3-1.2-3-3.2v-1h1.9v1.2c0 .9.4 1.2 1 1.2s1-.3 1-1.4v-1c0-1.2-.4-1.6-1.3-1.6h-.7v-1.8h.8c.7 0 1.2-.3 1.2-1.3V88z"/><path class="st5" d="M170.2 181.7h125.5v11.5H170.2zM171 199.5h125.5V211H171z"/><path class="st2" d="M138.9 217.7h190.6"/><g><path class="st12" d="M250.7 166.9v-.7l40.7-.3v.7zM242.4 123.2l.1-2.5 53.2-.4v2.5zM174.2 141.3v-1.1l50.4-.4v1.1zM236.2 140.8l-6.7.1.1-6.5 6.7-.1-.1 6.5zm-6.2-.4h5.7l.1-5.6h-5.7l-.1 5.6zM244.8 140.8l-6.7.1.1-6.5 6.7-.1-.1 6.5zm-6.2-.5h5.7l.1-5.6h-5.7l-.1 5.6zM253.3 140.7l-6.7.1.1-6.5 6.7-.1-.1 6.5zm-6.2-.4h5.7l.1-5.6h-5.7l-.1 5.6z"/><path d="M302.6 172.8c0 .8-.7 1.5-1.6 1.5l-131 1c-.9 0-1.5-.7-1.5-1.5l.9-60.5c0-.8.7-1.5 1.6-1.5l131-1c.9 0 1.5.7 1.5 1.5l-.9 60.5z" fill="#fff"/><path class="st12" d="M261.9 140.6l-6.7.1.1-6.5 6.7-.1-.1 6.5zm-6.3-.4h5.7l.1-5.6h-5.7l-.1 5.6zM270.4 140.6l-6.7.1.1-6.5 6.7-.1-.1 6.5zm-6.2-.4h5.7l.1-5.6h-5.7l-.1 5.6zM278.9 140.5l-6.7.1.1-6.5 6.7-.1-.1 6.5zm-6.2-.4h5.7l.1-5.6h-5.7l-.1 5.6zM287.5 140.4l-6.7.1.1-6.5 6.7-.1-.1 6.5zm-6.3-.4h5.7l.1-5.6h-5.7l-.1 5.6zM296 140.4l-6.7.1.1-6.5 6.7-.1-.1 6.5zm-6.2-.4h5.7l.1-5.6h-5.7l-.1 5.6zM173.9 157.1v-1.2l119.6-.9v1.1zM173.8 167.7v-1.1l57.2-.5v1.2z"/><path class="st12" d="M298.6 172.8l-126.1 1c-1.2 0-2.1-.9-2.1-2l.8-56.4c0-1.1 1-2.1 2.1-2.1l126.1-1c1.2 0 2.1.9 2.1 2l-.8 56.4c0 1.2-.9 2.1-2.1 2.1zm-125.3-58.3c-.5 0-.8.4-.8.8l-.8 56.4c0 .4.4.8.8.8l126.1-1c.5 0 .8-.4.8-.8l.8-56.4c0-.4-.4-.8-.8-.8l-126.1 1z"/><path class="st12" d="M189.6 119.6c.3-.1 1.1-.1 1.7-.1.8 0 1.3.1 1.7.3.4.2.7.6.7 1.1 0 .5-.3 1-1 1.2.7.2 1.2.7 1.1 1.4 0 .5-.3.9-.6 1.2-.4.3-1.2.5-2.3.5-.7 0-1.1 0-1.4-.1l.1-5.5zm1.3 2.2h.4c.7 0 1.1-.3 1.1-.7 0-.4-.3-.7-.9-.7h-.6v1.4zm-.1 2.5h.5c.6 0 1.1-.2 1.1-.8 0-.6-.5-.8-1.2-.8h-.5l.1 1.6zM196.1 123.7l-.4 1.5h-1.4l1.9-5.7h1.7l1.7 5.7h-1.4l-.4-1.5h-1.7zm1.5-1l-.3-1.2c-.1-.3-.2-.8-.3-1.1-.1.3-.2.8-.3 1.1l-.4 1.2h1.3zM200.5 125.1l.1-5.7h1.6l1.2 2.1c.3.6.7 1.3.9 1.9-.1-.8-.1-1.5-.1-2.4v-1.7h1.2l-.1 5.7h-1.4l-1.2-2.2c-.3-.6-.7-1.3-1-2v4.2l-1.2.1zM206.6 119.4h1.3v2.5c.1-.2.3-.4.4-.6l1.4-1.9h1.6l-2 2.4 2 3.3h-1.6l-1.4-2.4-.5.6v1.9h-1.3l.1-5.8zM217.9 124.8c-.2.1-.8.3-1.5.3-2 0-3.1-1.2-3-2.8 0-1.9 1.5-3 3.3-3.1.7 0 1.2.1 1.4.2l-.3 1c-.3-.1-.6-.2-1.1-.2-1.1 0-1.9.6-1.9 1.9 0 1.1.7 1.9 1.9 1.8.4 0 .8-.1 1.1-.2l.1 1.1zM220.2 119.3v2.2h2.2v-2.2h1.3l-.1 5.7h-1.3v-2.4h-2.2v2.4h-1.3l.1-5.7h1.3zM228.3 122.5h-2.2v1.4h2.4v1.1h-3.8l.1-5.7h3.6v1.1h-2.3v1.2h2.2v.9zM233.8 124.7c-.2.1-.8.3-1.5.3-2 0-3.1-1.2-3-2.8 0-1.9 1.5-3 3.3-3.1.7 0 1.2.1 1.4.2l-.3 1c-.3-.1-.6-.2-1.1-.2-1.1 0-1.9.6-1.9 1.9 0 1.1.7 1.9 1.9 1.8.4 0 .8-.1 1.1-.2l.1 1.1zM234.7 119.2h1.3v2.5c.1-.2.3-.4.4-.6l1.4-1.9h1.6l-2 2.4 2 3.3h-1.6l-1.4-2.4-.4.5v1.9h-1.3v-5.7zM174.1 148.7v-1.1l119.5-.9v1.1z"/></g></g><g id="Character"><path class="st14" d="M243.4 356.4l10.1 87.9 10.9-.8 2.6-67.2 6.8-.8 42.4 2.6s5.3-1.1 6.8-1.1 3.4-4.1-5.6-7.9-71.3-15.8-72.8-15.8c-1.6.1-1.2 3.1-1.2 3.1z"/><path class="st14" d="M302.4 344s-39-12.9-77-4.5c-3.1.7-9.8 80-9.8 80l10.1 3 15.8-62.7s66.1 19.1 79.6 17.3c13.5-1.9-18.7-33.1-18.7-33.1z"/><path class="st15" d="M313.2 211.5s-3 7.9-3 11.6c0 3.8 1.7 7.4 1.7 7.4s-5.9 6.4-4.8 8.8c.7 1.5 3.7 2.1 3.7 2.1s2.6 13.9 4.9 14.6c2.3.8 11.6-1.1 11.6-1.1l-1.6 19 18.6-15.8-1.5-12s4.5-6.4 9.8-13.9c5.3-7.5 2.3-19.5-.8-25.2s-25.9-17.3-41.3 1.9l2.7 2.6z"/><path class="st11" d="M374 217.8c-.5-1.7 4.8-2.2 2.9-6.3s-7.7-3.9-7.5-6.7c.2-2.9 2.2-2.6-1.2-5.8-3.4-3.1-6-1.4-7-4.6-1-3.1-1.7-6.3-1.7-6.3l-2.2-1.7c-1.4-1.1-2.7 0-3.5.8-2 .6-3.8 3.2-5.7 3-2.8-.3-3.4-7.6-9-7.2-5.5.3-3.4 9.3-5.5 8.6-2.1-.7-6.2-3.4-11.7-2.1-5.5 1.4 0 6.6-2.1 6.2s-14.1-2.8-15.2.3c-1 3.1 6.5 7.2 6.5 7.2s-9.3-2.8-6.5 2.4c2.8 5.2 8.5 5.6 8.5 5.6s-3.7 1.4-2.2 3.1c1.3 1.5 5.5 1.8 6.7 1.9l.2.2c-.4.9-1.5 4.7 2.9 5.8 1.2.3 2.2.5 3 .6l.7.7c-.4 1-.8 2.1-1.1 3.1-.7 3.1 4.8 4.8 6.9 4.8s3.8 6.9 2.1 9c-.4.5-.5 1-.5 1.6-.3.4-.6.6-.7.8-1 1.2-1.9 5.3-.7 6 1.2.7 6 0 6 0s.7 5.8 2.9 6.3 3.9-1.7 4.6-3.4c.7-1.7 2.6 2.4 5.5 1.9s4.1-2.6 5.1-4.3 1.9 1.4 6.5.5c4.6-1 2.6-7.7 2.6-7.7s4.3 2.4 6.7.5c2.4-1.9 3.1-6.3 3.4-9.2.2-2.9 4.1.7 4.1-4.6s-3.3-9.3-3.8-11z"/><path class="st14" d="M327.4 254.9l5.2-1.4-5.6 10z"/><path class="st11" d="M316.6 230.6c0 1.3-.5 2.3-1 2.3s-1-1-1-2.3.5-2.3 1-2.3c.5-.1 1 1 1 2.3z"/><path class="st2" d="M314.2 224.8s2-.9 4.3 1.2"/><path class="st14" d="M314.1 307.1l-40.4 3.3-13-1.2s-17.9 6.1-14.4 7.2 7.5-.1 7.5-.1 5.3 2.2 10.6 2.1c5.3-.1 8.7-1.2 8.7-1.2l45.1 6.8-4.1-16.9z"/><path class="st5" d="M343.7 255.8s-23.3 22.5-27 28.2c-3.8 5.6-5.3 10.5-5.3 15.4s3.4 15.8 3.4 15.8l-4.5 16.1-13.1 12 20.7 33s9.4 1.9 15.8-1.9 10.5-19.9 10.5-27.8c0-7.9-1.5-24.8-1.5-24.8s8.6-27 11.3-37.2c2.6-10.1 3-19.1.4-24-2.9-4.8-7-7.4-10.7-4.8z"/><path class="st6" d="M316.6 284c-.8 1.2-1.5 2.3-2.1 3.5 9.9 1.4 23.4 3.5 36.7 6.3.5-1.8 1-3.4 1.4-5-12.6-2.7-25.3-4.7-35.1-6.1-.3.5-.6.9-.9 1.3zM354.1 283.5c.4-1.7.8-3.4 1-5l-27.2-7c-1.4 1.5-2.8 2.9-4.1 4.3l30.3 7.7zM343.2 319.9c.4-1.2.9-3 1.6-5.1-9.9-.7-20.7-1.5-30.8-2.3.4 1.6.8 2.6.8 2.6l-.7 2.5c9.5.8 19.7 1.6 29.1 2.3zM355.8 273.4c.2-1.9.2-3.7.1-5.4l-18.6-6.1c-1.3 1.3-2.7 2.6-4.1 4.1l22.6 7.4zM331.6 375.4c-8.3-6.6-18.9-15.1-28.7-22.9l8.2 13.2c4.9 3.9 9.6 7.7 13.9 11.1 2.1-.2 4.4-.5 6.6-1.4zM342.8 325.4c-10.6-.2-21.6-.5-30.7-.9l-1.4 5.1c9.6.5 21.2.8 32.5 1-.1-2-.3-3.8-.4-5.2zM311.9 294.5c-.4 1.6-.5 3.3-.5 4.9v.2c10.6.3 23.9 1.5 37.2 2.9.5-1.7 1-3.4 1.5-5-13.5-1.5-27.2-2.7-38.2-3zM311.1 346c-3.9-1.8-7.7-3.5-11.2-5.2l-2.7 2.5 1.7 2.7c3.2 1.5 6.6 3 10.1 4.7 9.3 4.3 21.4 8.6 32.1 12.1.6-1.6 1.1-3.3 1.5-5-10.7-3.5-22.5-7.7-31.5-11.8zM344 346.7c0-1.2 0-2.6-.1-4.1-12.7-2-25.5-5.2-36.8-8.5l-4.4 4.1c12.4 3.7 26.9 7.5 41.3 9.7v-1.2z"/><path class="st15" d="M253.5 444.3l-12.8 14.3s-9.8 3-11.3 4.5 1.5 2.3 5.3 3.8 17.6-.8 22.2-1.1c4.5-.4 8.6 0 10.1-3.8s0-7.9-.4-9.4-2.3-9-2.3-9l-10.8.7z"/><path class="st6" d="M240.1 458.8c-2.2.7-9.4 3-10.6 4.3-1.5 1.5 1.5 2.3 5.3 3.8s17.6-.8 22.2-1.1 8.6 0 10.1-3.8 0-7.9-.4-9.4c0-.2-.1-.4-.2-.7-6.6 4.1-17.7 8.6-20.1 8.6-1.6-.1-4.2-.9-6.3-1.7z"/><g><path class="st15" d="M215.6 419.5s-14.6 16.1-16.5 18.4c-1.9 2.3-7.5 3-7.1 5.6s6.4 1.9 9 1.5c2.6-.4 19.1-4.5 21.4-5.3 2.3-.8 5.3-1.9 5.6-5.3.4-3.4-2.3-12-2.3-12l-10.1-2.9z"/><path class="st6" d="M228 434.5c.2-2.1-.7-6.3-1.4-9.1-3.7 1.8-7.2 6.7-9.1 7.6-2.3 1.1-19.5 6.8-19.5 6.8l-.8-.4c-2.4 1.3-5.5 2.2-5.2 4.2.4 2.6 6.4 1.9 9 1.5 2.6-.4 19.1-4.5 21.4-5.3 2.2-.8 5.2-1.9 5.6-5.3z"/></g><g><path class="st15" d="M351.8 259.5c-3.3-1.8-9.8 1.4-11.9 5.1l-2.9 10.9-10.5 35.1-52.7-.3s-14.9-3.3-17.1-3.2c-2.2 0-13.2 7.2-13.2 8.3 0 1.1 2.9 1 2.9 1l5.1-.5 5.4-1.2s4.7 1.3 6.9 1.3 5.4-.8 5.4-.8 57 12.8 60.6 12.8 7.6-1.1 9.1-3.6c1.4-2.5 16.7-40.2 17.4-48.5.5-8.4-1.3-14.5-4.5-16.4z"/><path class="st2" d="M246.6 315.8s8.4-4.5 9.3-4.7M254.7 308.7s-9.5 5.4-10.1 7.5"/></g><g><path class="st16" d="M368 265l-6-.3s-15.4 44.7-17.5 61.5c-2 16.8-1.3 30.9-.3 35.6s6.4 13.8 6.4 13.8l6.7 1.7s-7.1-18.1-7.4-23.2c-.3-5 .5-25 1-27.5C354.6 307 368 265 368 265zM314 436.3s-33.2 16.8-33.9 20.5c-.7 3.7 0 8.4 0 8.4l1.2-1.2 3.2-7.6 29.9-14.1-.4-6z"/><path class="st14" d="M286.1 463.8c0 2-1.7 3.7-3.7 3.7s-3.7-1.7-3.7-3.7 1.7-3.7 3.7-3.7 3.7 1.7 3.7 3.7z"/><path class="st16" d="M323.7 436.3s33.2 16.8 33.9 20.5c.7 3.7 0 8.4 0 8.4l-1.2-1.2-3.2-7.6-29.9-14.1.4-6z"/><path class="st14" d="M351.6 463.8c0 2 1.7 3.7 3.7 3.7s3.7-1.7 3.7-3.7-1.7-3.7-3.7-3.7c-2.1 0-3.7 1.7-3.7 3.7zM315.6 381.5h5.4v58.4h-5.4z"/><path class="st14" d="M310.6 387.2h15.8v10.7h-15.8z"/><path class="st16" d="M356 376.4c-11.6-1.2-49.1-4.5-82.7 0-1.3.2-1.8 1.8-.8 2.6 3.6 3.4 13.5 9.5 39.1 11.2 26.5 1.7 40-6.4 45.3-10.8 1.2-.9.6-2.8-.9-3z"/><path class="st14" d="M272.5 379.1c.3.3.7.5 1.1.5H357c1.2-1 .6-2.9-.9-3-11.6-1.2-49.1-4.5-82.7 0-1.3 0-1.9 1.6-.9 2.5zM312.3 430.9h12.4V444h-12.4z"/><path class="st16" d="M317.1 437.5h1.8v30.1h-1.8z"/><path class="st14" d="M316.4 459.7h3.3v7.9h-3.3z"/><path class="st16" d="M331.1 379.5h-7.4l-4.7-45h5z"/><path class="st14" d="M343.8 337.6h-50.7s3.7-6.7 6-7.4c2.4-.7 40.6 0 40.6 0s4.1 1.3 4.1 7.4z"/><path class="st16" d="M293.1 337.6h50.7c0-.6 0-1.2-.1-1.7h-49.6c-.6.9-1 1.7-1 1.7z"/></g></g><g id="Table"><path class="st5" d="M136 328.5l5.7 14.7c2 4.2 2.8 11.3 2.3 15.9l-13.4 106.4c-.2 1.2.8 2.3 2 2.3 1 0 1.8-.7 2-1.7l25.6-136.2h-9.4l-1.6 7.8c-.3 1.3-2.1 1.4-2.6.1l-3.2-10-7.4.7z"/><path class="st14" d="M149.9 334.3h9.5l.8-4.4h-9.4zM143.4 327.9l-7.4.6 2.2 5.8h7.3z"/><g><path class="st5" d="M280.4 328.5l-5.7 14.7c-2 4.2-2.8 11.3-2.3 15.9l13.4 106.4c.2 1.2-.8 2.3-2 2.3-1 0-1.8-.7-2-1.7l-25.6-136.2h9.4l1.6 7.8c.3 1.3 2.1 1.4 2.6.1l3.2-10 7.4.7z"/><path class="st14" d="M265.5 329.9h-9.4l.8 4.4h9.5zM270.8 334.3h7.3l2.3-5.8-7.5-.6z"/></g><path class="st5" d="M125.9 321.1h165.2v8.7H125.9z"/><g><path class="st5" d="M236.7 318.7h42.2v2.5h-42.2z"/><path class="st14" d="M211.2 320.6h-18.4c-3.2 0-5.9-2.5-6.1-5.8 0-.7 0-1.4.2-2l11.5-33.2c.2-.7 1-1.1 1.7-.8.7.2 1.1 1 .8 1.7l-11.5 33.1c-.1.3-.1.7-.1 1.1a3.4 3.4 0 0 0 3.4 3.2h18.4c.7 0 1.3.6 1.3 1.3.1.8-.5 1.4-1.2 1.4z"/><path class="st5" d="M206.5 234.2l20.3 77.9-2.2 1.7s-25.6-20-25.6-36.7 4.5-42.3 4.5-42.3l3-.6z"/><path class="st14" d="M206.5 234.2l-3.1.5 21.2 79.1 2.2-1.7z"/></g><g><path class="st6" d="M150.1 305.4s-7.2-11.6-1.4-18.1c5.8-6.5 15.2-3.4 17.1 2.6s-2.2 16.1-2.2 16.1l-13.5-.6z"/><path class="st6" d="M150.4 292.2c-1.2 0-5.8-1.7-7.2-3.9-1.4-2.2-1.7-7 2.4-7s5.5 7.2 5.5 7.2l.2 2.6M154.1 287.7c-1.1-.5-4.4-4.1-4.7-6.7-.3-2.6 1.6-7 5.3-5.2s1.7 8.9 1.7 8.9l-1 2.5M158.5 288.9c-.6-1-1.4-5.9-.2-8.2 1.2-2.3 5.2-4.9 7.3-1.4 2 3.6-3.5 8.4-3.5 8.4l-2.2 1.5M159.9 297.5c-.2-1.2.7-6 2.6-7.8 1.9-1.8 6.6-2.8 7.3 1.2.7 4-6.2 6.7-6.2 6.7l-2.6.7"/><path class="st17" d="M143.7 285.4l.8 1.3M146 288.5l1.3 1.1M144.6 283l1.3 1.8M147.6 286.3l1.4 2.6M150.9 280.2l.5 1.4M152.5 284.1l.8 1.2M152.2 277.4l1 2.3M148.1 293.8l.4 2.1M149.2 297.8l.4 1.8M150.3 293.9l.5 2.3M151.8 297.8l.4 1.8M152.6 290.9l.7 3.2M154.3 297.2l.1 1.6M155.5 289.8l.6 3M156.1 296l.3 3.1M158.9 291v2.5M158.6 296.8l.1 2M161.8 278.9l-.6 1.4M161 281.9l-.6 2M164.4 281.6l-1 1.8M161.5 285.5l-1.1 1.2M159.3 281.4l-.4 1.6M164.4 289.8l-1.3 2.1M162.3 293.2l-.7 1.8M163.3 296l2.1-1.2M166.7 289.8l-1.1 1.8M167.7 291.8l-1.4 1"/><path class="st14" d="M146.5 301.4h19.8v19.8h-19.8z"/></g></g><g id="Plant"><path class="st18" d="M391.7 323.7l11.5 109.8M401.3 412.5l-5.2-5.5"/><path class="st19" d="M397.7 408.7s.1-2.4-2.1-4.4c-1.3-1.2-8.4-4.1-9-1.7-.7 2.7 6.5 8 11.1 6.1z"/><path class="st20" d="M397.7 408.7l-6.7-4.2"/><path class="st18" d="M402.6 425l-5.2-5.5"/><path class="st19" d="M399 421.2s.1-2.4-2.1-4.4c-1.3-1.2-8.4-4.1-9-1.7-.7 2.7 6.5 7.9 11.1 6.1z"/><path class="st20" d="M399 421.2l-6.7-4.2"/><path class="st18" d="M398.2 382l-5.2-5.4"/><path class="st19" d="M394.5 378.2s.1-2.4-2.1-4.4c-1.3-1.2-8.4-4.1-9-1.7-.7 2.7 6.5 8 11.1 6.1z"/><path class="st20" d="M394.5 378.2l-6.6-4.2"/><path class="st18" d="M399.5 394.5l-5.2-5.5"/><path class="st19" d="M395.8 390.7s.1-2.4-2.1-4.4c-1.3-1.2-8.4-4.1-9-1.7-.7 2.7 6.5 8 11.1 6.1z"/><path class="st20" d="M395.8 390.7l-6.6-4.2"/><g><path class="st18" d="M396 361.8l-5.2-5.5"/><path class="st19" d="M392.4 357.9s.1-2.4-2.1-4.4c-1.3-1.2-8.4-4.1-9-1.7-.7 2.7 6.5 8 11.1 6.1z"/><path class="st20" d="M392.4 357.9l-6.7-4.1"/></g><g><path class="st18" d="M393.9 341.4l-5.2-5.5"/><path class="st19" d="M390.3 337.5s.1-2.4-2.1-4.4c-1.3-1.2-8.4-4.1-9-1.7-.7 2.8 6.5 8 11.1 6.1z"/><path class="st20" d="M390.3 337.5l-6.7-4.1"/></g><g><path class="st18" d="M400.5 405.1l3.9-6.4"/><path class="st19" d="M403.2 400.6s-.6-2.3 1.1-4.7c1.1-1.4 7.3-5.8 8.5-3.5 1.3 2.5-4.7 9.1-9.6 8.2z"/><path class="st20" d="M403.2 400.6l6-5.7"/></g><g><path class="st18" d="M397 372.3l4-6.5"/><path class="st19" d="M399.8 367.8s-.6-2.3 1.1-4.7c1.1-1.4 7.3-5.8 8.5-3.5 1.2 2.4-4.7 9.1-9.6 8.2z"/><path class="st20" d="M399.8 367.8l6-5.8"/></g><g><path class="st18" d="M395.5 357.8l4-6.4"/><path class="st19" d="M398.3 353.3s-.6-2.3 1.1-4.7c1.1-1.4 7.3-5.8 8.5-3.5 1.2 2.5-4.7 9.1-9.6 8.2z"/><path class="st20" d="M398.3 353.3l6-5.7"/></g><g><path class="st18" d="M393.3 336.7l4-6.5"/><path class="st19" d="M396.1 332.2s-.6-2.3 1.1-4.7c1.1-1.4 7.3-5.8 8.5-3.5 1.2 2.4-4.7 9-9.6 8.2z"/><path class="st20" d="M396.1 332.2l6-5.8"/><path class="st19" d="M391.6 323.1s-.6-2.3 1.1-4.7c1.1-1.4 7.3-5.8 8.5-3.5 1.3 2.5-4.7 9.1-9.6 8.2z"/><path class="st20" d="M391.6 323.1l6-5.7"/><path class="st19" d="M392 323.4s-2.4.4-4.6-1.6c-1.3-1.2-5-7.9-2.6-8.8 2.6-1 8.6 5.6 7.2 10.4z"/><path class="st20" d="M392 323.4l-5.1-6.6"/></g><g><path class="st18" d="M421.9 338.9l-11.3 109.8M413.1 427.7l-4-6.4"/><path class="st19" d="M410.3 423.2s.6-2.3-1.1-4.7c-1.1-1.4-7.3-5.8-8.5-3.5-1.2 2.5 4.7 9.1 9.6 8.2z"/><path class="st20" d="M410.3 423.2l-5.7-5.4"/><path class="st18" d="M416.2 397.2l-3.9-6.4"/><path class="st19" d="M413.5 392.7s.6-2.3-1.1-4.7c-1.1-1.4-7.3-5.8-8.5-3.5-1.3 2.5 4.7 9.1 9.6 8.2z"/><path class="st20" d="M413.5 392.7l-5.7-5.4"/><path class="st18" d="M414.9 409.7l-3.9-6.4"/><path class="st19" d="M412.2 405.2s.6-2.3-1.1-4.7c-1.1-1.4-7.3-5.8-8.5-3.5-1.3 2.5 4.7 9.1 9.6 8.2z"/><path class="st20" d="M412.2 405.2l-5.7-5.4"/><g><path class="st18" d="M418.3 377l-3.9-6.5"/><path class="st19" d="M415.6 372.5s.6-2.3-1.1-4.7c-1.1-1.4-7.3-5.8-8.5-3.5-1.3 2.4 4.7 9 9.6 8.2z"/><path class="st20" d="M415.6 372.5l-5.7-5.5"/></g><g><path class="st18" d="M420.5 356.6l-4-6.5"/><path class="st19" d="M417.7 352.1s.6-2.3-1.1-4.7c-1.1-1.4-7.3-5.8-8.5-3.5-1.3 2.4 4.7 9.1 9.6 8.2z"/><path class="st20" d="M417.7 352.1l-5.7-5.5"/></g><g><path class="st18" d="M413.7 420.3l5.2-5.5"/><path class="st19" d="M417.4 416.5s-.1-2.4 2.1-4.4c1.3-1.2 8.3-4.1 9-1.7.7 2.7-6.5 7.9-11.1 6.1z"/><path class="st20" d="M417.4 416.5l7-4.4"/></g><g><path class="st18" d="M417.1 387.4l5.2-5.4"/><path class="st19" d="M420.8 383.6s-.1-2.4 2.1-4.4c1.3-1.2 8.3-4.1 9-1.7.7 2.7-6.5 8-11.1 6.1z"/><path class="st20" d="M420.8 383.6l7-4.4"/></g><g><path class="st18" d="M418.6 373l5.2-5.5"/><path class="st19" d="M422.3 369.2s-.1-2.4 2.1-4.4c1.3-1.2 8.3-4.1 9-1.7.7 2.7-6.5 7.9-11.1 6.1z"/><path class="st20" d="M422.3 369.2l7-4.4"/></g><g><path class="st18" d="M420.8 351.8l5.2-5.5"/><path class="st19" d="M424.5 348s-.1-2.4 2.1-4.4c1.3-1.2 8.3-4.1 9-1.7.7 2.7-6.5 8-11.1 6.1z"/><path class="st20" d="M424.5 348l7-4.4"/><path class="st19" d="M422 338.2s-.1-2.4 2.1-4.4c1.3-1.2 8.3-4.1 9-1.7.7 2.7-6.5 8-11.1 6.1z"/><path class="st20" d="M422 338.2l7-4.3"/><path class="st19" d="M422.3 338.6s-2.4-.1-4.2-2.5c-1-1.5-3.2-8.7-.7-9.1 2.7-.5 7.2 7.2 4.9 11.6z"/><path class="st20" d="M422.3 338.6l-3.7-7.5"/></g></g><path class="st18" d="M408.9 294.1V433"/><g><path class="st18" d="M409 412.1l-4.6-6"/><path class="st19" d="M405.8 407.9s.4-2.4-1.6-4.6c-1.2-1.3-7.9-5-8.8-2.6-1 2.6 5.6 8.6 10.4 7.2z"/><path class="st20" d="M405.8 407.9l-6.2-4.8"/><path class="st18" d="M409 386l-4.6-6"/><path class="st19" d="M405.8 381.8s.4-2.4-1.6-4.6c-1.2-1.3-7.9-5-8.8-2.6-1 2.6 5.6 8.6 10.4 7.2z"/><path class="st20" d="M405.8 381.8l-6.2-4.8"/><path class="st18" d="M409 355.4l-4.6-6"/><path class="st19" d="M405.8 351.2s.4-2.4-1.6-4.6c-1.2-1.3-7.9-5-8.8-2.6-1 2.6 5.6 8.6 10.4 7.2z"/><path class="st20" d="M405.8 351.2l-6.2-4.8"/><path class="st18" d="M409 335l-4.6-6"/><path class="st19" d="M405.8 330.8s.4-2.4-1.6-4.6c-1.2-1.3-7.9-5-8.8-2.6-1 2.6 5.6 8.6 10.4 7.2z"/><path class="st20" d="M405.8 330.8l-6.2-4.8"/><g><path class="st18" d="M409 314.5l-4.6-6"/><path class="st19" d="M405.8 310.3s.4-2.4-1.6-4.6c-1.2-1.3-7.9-5-8.8-2.6-1 2.6 5.6 8.6 10.4 7.2z"/><path class="st20" d="M405.8 310.3l-6.2-4.8"/></g><g><path class="st18" d="M408.9 420.1l4.6-6"/><path class="st19" d="M412.1 415.9s-.4-2.4 1.6-4.6c1.2-1.3 7.9-5 8.8-2.6 1 2.6-5.6 8.6-10.4 7.2z"/><path class="st20" d="M412.1 415.9l6.6-5.1"/></g><g><path class="st18" d="M408.9 378.6l4.6-6"/><path class="st19" d="M412.1 374.4s-.4-2.4 1.6-4.6c1.2-1.3 7.9-5 8.8-2.6 1 2.6-5.6 8.6-10.4 7.2z"/><path class="st20" d="M412.1 374.4l6.6-5.1"/></g><g><path class="st18" d="M408.9 358.1l4.6-6"/><path class="st19" d="M412.1 353.9s-.4-2.4 1.6-4.6c1.2-1.3 7.9-5 8.8-2.6 1 2.6-5.6 8.6-10.4 7.2z"/><path class="st20" d="M412.1 353.9l6.6-5.1"/></g><g><path class="st18" d="M408.9 331l4.6-6"/><path class="st19" d="M412.1 326.8s-.4-2.4 1.6-4.6c1.2-1.3 7.9-5 8.8-2.6 1 2.6-5.6 8.6-10.4 7.2z"/><path class="st20" d="M412.1 326.8l6.6-5.1"/></g><g><path class="st18" d="M408.9 309.7l4.6-5.9"/><path class="st19" d="M412.1 305.5s-.4-2.4 1.6-4.6c1.2-1.3 7.9-5 8.8-2.6 1 2.7-5.6 8.6-10.4 7.2z"/><path class="st20" d="M412.1 305.5l6.6-5"/><path class="st19" d="M408.6 296.1s-.4-2.4 1.6-4.6c1.2-1.3 7.9-5 8.8-2.6 1 2.6-5.6 8.6-10.4 7.2z"/><path class="st20" d="M408.6 296.1l6.6-5.1"/><path class="st19" d="M408.9 296.4s-2.4.1-4.4-2.1c-1.2-1.3-4.1-8.4-1.7-9 2.8-.7 8 6.5 6.1 11.1z"/><path class="st20" d="M408.9 296.4l-4.3-7.1"/></g></g><path fill="#263238" stroke="#263238" stroke-miterlimit="10" d="M414.6 469h-14.7l-1.8-37.1h18.3z"/></g></svg>