<svg id="Layer_1" xmlns="http://www.w3.org/2000/svg" viewBox="0 0 500 500"><style>.st0{fill:#ba9765}.st2{fill:none;stroke:#263238;stroke-miterlimit:10}.st3{opacity:.3}.st4{stroke:#000;stroke-linecap:round;stroke-linejoin:round}.st10,.st4,.st6,.st7,.st8{fill:none;stroke-miterlimit:10}.st6{opacity:.3;stroke-linecap:round;stroke-linejoin:round;enable-background:new;stroke:#000}.st10,.st7,.st8{stroke:#ababab}.st10,.st8{fill:#ba9765;stroke:#263238}.st10{fill:none;stroke-linecap:round}.st11{fill:#263238}.st12{fill:#7a7a7a}.st13{fill:#8c8c8c}.st14,.st15,.st16,.st17,.st18,.st19,.st20{fill:#263238;stroke:#263238;stroke-linecap:round;stroke-linejoin:round;stroke-miterlimit:10}.st15,.st16,.st17,.st18,.st19,.st20{fill:#fff}.st16,.st17,.st18,.st19,.st20{fill:#dedede}.st17,.st18,.st19,.st20{fill:#b8b8b8}.st18,.st19,.st20{fill:#ba9765}.st19,.st20{fill:none}.st20{stroke:#878787}</style><g id="Background_Simple"><path class="st0" d="M468.5 108.2c-1.6-2.7-3.2-5.3-5-7.9-23.2-34.3-63.1-57.8-102.3-68.5-17.2-4.7-34.9-7.1-52.7-7.7-116.6-4-163.1 88-201.6 111.7S9 200 13 285c4 85 65.2 165 183.8 170 118.6 4.9 126.5-48.4 192.7-68.2 43.8-13.1 75-57.3 90.2-98.1 20.8-55.6 19.8-127.9-11.2-180.5z"/><path d="M468.5 108.2c-1.6-2.7-3.2-5.3-5-7.9-23.2-34.3-63.1-57.8-102.3-68.5-17.2-4.7-34.9-7.1-52.7-7.7-116.6-4-163.1 88-201.6 111.7S9 200 13 285c4 85 65.2 165 183.8 170 118.6 4.9 126.5-48.4 192.7-68.2 43.8-13.1 75-57.3 90.2-98.1 20.8-55.6 19.8-127.9-11.2-180.5z" opacity=".7" fill="#fff"/></g><g id="Floor"><path class="st2" d="M307.9 470.2h166.3M39.9 470.2h255.3M14.5 470.2h18.2"/></g><g id="Graphics"><g class="st3"><path class="st4" d="M190.3 386.8h-21.7V335h34l4.8 6.9v4.3"/><path class="st4" d="M202.6 335v7.5h4.8zM174.5 349.8h11.4M174.5 357.1h11.4M174.5 364.4h11.4M174.5 371.7h11.4"/></g><path opacity=".3" d="M186.1 349.2h4.2v37.1h-4.2z"/><g class="st3"><path class="st4" d="M229 398.6h-38.2v-51.7h33.4l4.8 6.9z"/><path class="st4" d="M224.2 346.9v7.5h4.8zM196.2 361.7h27.1M196.2 369h27.1M196.2 376.3h27.1M196.2 383.6h27.1"/></g><path class="st6" d="M108.9 41.3L107 36H85.2v36.6h46V41.3zM55.9 41.3L54 36H32.2v36.6h46V41.3zM399.5 310.2l-1.8-5.2h-21.9v36.5h46.1v-31.3zM346.5 310.2l-1.8-5.2h-21.9v36.5h46.1v-31.3zM55.9 90.3L54 85H32.2v36.6h46V90.3z"/><g><path class="st7" d="M433.2 133.1H486v10.6h-52.8zM433.2 146.4H486V157h-52.8zM433.2 159.6H486v10.6h-52.8zM433.2 172.8H486v10.6h-52.8zM433.2 186H486v10.6h-52.8z"/><path class="st7" d="M470.4 138.7c0-1.1-.9-1.9-1.9-1.9-1.1 0-1.9.9-1.9 1.9s.9 1.9 1.9 1.9c1 .1 1.9-.8 1.9-1.9zM477.2 138.7c0-1.1-.9-1.9-1.9-1.9s-1.9.9-1.9 1.9.9 1.9 1.9 1.9 1.9-.8 1.9-1.9z"/><circle class="st7" cx="468.5" cy="151.6" r="1.9"/><circle class="st7" cx="475.2" cy="151.6" r="1.9"/><circle class="st7" cx="468.5" cy="164.5" r="1.9"/><circle class="st7" cx="475.2" cy="164.5" r="1.9"/><path class="st7" d="M470.4 177.4c0-1.1-.9-1.9-1.9-1.9-1.1 0-1.9.9-1.9 1.9s.9 1.9 1.9 1.9c1 0 1.9-.9 1.9-1.9zM477.2 177.4c0-1.1-.9-1.9-1.9-1.9s-1.9.9-1.9 1.9.9 1.9 1.9 1.9 1.9-.9 1.9-1.9z"/><circle class="st7" cx="468.5" cy="190.3" r="1.9"/><circle class="st7" cx="475.2" cy="190.3" r="1.9"/><path class="st7" d="M456.9 132.8V20.1H292.4V360h163.7V197.2"/></g></g><g id="Plant"><ellipse class="st8" cx="389.3" cy="382.3" rx="10.5" ry="27.5"/><path class="st8" d="M421.9 365.3c-3.3 10.3-9.6 17.5-14.1 16.1-4.5-1.4-5.5-11-2.2-21.3s9.6-17.5 14.1-16.1c4.5 1.5 5.4 11 2.2 21.3zM344.9 427.6c-10.7-1.8-18.7-7-17.9-11.7s10.1-6.9 20.8-5.1 18.7 7 17.9 11.7c-.8 4.6-10.1 6.9-20.8 5.1z"/><ellipse transform="rotate(-44.765 424.344 394.65)" cx="424.3" cy="394.6" rx="22.7" ry="10.5" fill="#ba9765" stroke="#263238" stroke-miterlimit="10"/><path class="st8" d="M370.3 377.9c8.6 12.5 11.2 25.7 5.7 29.5-5.5 3.8-16.9-3.3-25.5-15.8-8.6-12.5-11.2-25.7-5.7-29.5 5.4-3.8 16.9 3.3 25.5 15.8z"/><path class="st10" d="M390 408.4l.8 37.9M389 372.1l1 36.3M389.1 366.1l-.1 2.8M376 405.5c5.3 11 9.5 24.5 10.4 39.7M358 378c4.9 5.6 12.1 15.1 18 27.6M352.3 372s1.1 1 2.9 2.9M408.9 409.4c-6.1 8.5-12.3 19.5-17 33.7M420.9 395.6c-3.7 3.5-7.9 8.1-12.1 13.9M433.8 385.7s-3.7 1.9-9.2 6.5M408.4 378.9c-5.8 18.3-13.6 45.3-17.3 68.8M411.9 368c-1 3.1-2.2 6.7-3.5 10.8M415.6 357.5s-1 2.8-2.6 7.6M365.1 419.9c7.3 2.8 14.3 8.1 17.8 18.1M351.7 417.2c3.9.2 8.7.9 13.4 2.7M343 417.4s1.3-.2 3.4-.3"/><path class="st8" d="M436.3 427.6c10.7-1.8 18.7-7 17.9-11.7s-10.1-6.9-20.8-5.1-18.7 7-17.9 11.7c.8 4.6 10.1 6.9 20.8 5.1z"/><path class="st10" d="M416.3 419.8c-7.3 2.7-14.5 8-18 18.2M430.6 417.1c-4 .2-9.2.8-14.3 2.7M438.1 417.4s-.9-.1-2.3-.2"/><g><path class="st11" d="M416.1 470.2c3.1-6.6 5-14.1 5-21.7 0-4.7-.7-9.1-2-13.2h-55.9c-1.3 4.1-2 8.6-2 13.2 0 7.5 1.8 15.1 5 21.7h49.9z"/><path class="st12" d="M361.8 441.5c-.2 1-.3 2-.4 3.1h59.5c-.1-1-.2-2.1-.4-3.1h-58.7zM420.3 457.3c.2-1 .3-2.1.5-3.1h-59.2c.1 1 .3 2.1.5 3.1h58.2z"/><path class="st13" d="M368.5 448.7c0 1.3-1.1 2.4-2.4 2.4-1.3 0-2.4-1.1-2.4-2.4s1.1-2.4 2.4-2.4c1.3 0 2.4 1 2.4 2.4zM380.5 448.7c0 1.3-1.1 2.4-2.4 2.4-1.3 0-2.4-1.1-2.4-2.4s1.1-2.4 2.4-2.4c1.3 0 2.4 1 2.4 2.4zM392.5 448.7c0 1.3-1.1 2.4-2.4 2.4-1.3 0-2.4-1.1-2.4-2.4s1.1-2.4 2.4-2.4c1.4 0 2.4 1 2.4 2.4zM404.6 448.7c0 1.3-1.1 2.4-2.4 2.4s-2.4-1.1-2.4-2.4 1.1-2.4 2.4-2.4 2.4 1 2.4 2.4zM416.6 448.7c0 1.3-1.1 2.4-2.4 2.4-1.3 0-2.4-1.1-2.4-2.4s1.1-2.4 2.4-2.4c1.3 0 2.4 1 2.4 2.4z"/></g></g><g id="Screen"><path class="st14" d="M171.3 39.3h256.4v259.8H171.3z"/><path class="st15" d="M162.6 33.8H424V294H162.6z"/><path class="st16" d="M417 33.8h7V294h-7z"/><path class="st17" d="M417 70h7v52.5h-7z"/><path class="st16" d="M247.7 33.8h7V294h-7z"/><path class="st17" d="M247.7 70h7v106.5h-7z"/><path class="st15" d="M162.6 33.8h85.3V294h-85.3z"/><path class="st16" d="M162.6 33.8H424V57H162.6z"/><path class="st0" d="M164.7 117.2h81.7v44.1h-81.7z"/><path class="st14" d="M162.6 33.8H424v12.3H162.6z"/><path class="st15" d="M397.1 40.4c0-1.6-1.3-2.9-2.9-2.9s-2.9 1.3-2.9 2.9 1.3 2.9 2.9 2.9 2.9-1.3 2.9-2.9zM405.8 40.4c0-1.6-1.3-2.9-2.9-2.9s-2.9 1.3-2.9 2.9 1.3 2.9 2.9 2.9 2.9-1.3 2.9-2.9zM414.5 40.4c0-1.6-1.3-2.9-2.9-2.9s-2.9 1.3-2.9 2.9 1.3 2.9 2.9 2.9 2.9-1.3 2.9-2.9zM207.6 82.1l-1.6-4.8h-19.7v32.9h41.5V82.1z"/><path class="st15" d="M188.1 84.8h37.8v20.8h-37.8z"/><path class="st15" d="M186.3 89.4h41.5v20.8h-41.5zM207.6 178.6l-1.6-4.8h-19.7v33h41.5v-28.2z"/><path class="st15" d="M188.1 181.3h37.8v20.8h-37.8z"/><path class="st15" d="M186.3 185.9h41.5v20.8h-41.5z"/><g><path class="st15" d="M207.6 227.8l-1.6-4.7h-19.7V256h41.5v-28.2z"/><path class="st15" d="M188.1 230.6h37.8v20.8h-37.8z"/><path class="st15" d="M186.3 235.2h41.5V256h-41.5z"/></g><g><path class="st18" d="M207.6 128.1l-1.6-4.8h-19.7v32.9h41.5v-28.1z"/><path class="st15" d="M188.1 130.8h37.8v20.8h-37.8z"/><path class="st18" d="M186.3 135.4h41.5v20.8h-41.5z"/></g><g><path class="st15" d="M263.8 79.3H302v49h-38.2z"/><path class="st19" d="M268.9 89.2h27.6M268.9 97.7h27.6M268.9 106.2h27.6M268.9 114.7h27.6"/><path class="st15" d="M314.3 79.3h38.2v49h-38.2z"/><path class="st19" d="M319.4 89.2H347M319.4 97.7H347M319.4 106.2H347M319.4 114.7H347"/><g><path class="st15" d="M364.8 79.3H403v49h-38.2z"/><path class="st19" d="M369.9 89.2h27.6M369.9 97.7h27.6M369.9 106.2h27.6M369.9 114.7h27.6"/></g><path class="st19" d="M265 139h35.5M316 139h35.5M367 139h35.5"/></g><g><path class="st15" d="M263.8 152.3H302v49h-38.2z"/><path class="st19" d="M268.9 162.2h27.6M268.9 170.7h27.6M268.9 179.2h27.6M268.9 187.7h27.6"/><path class="st15" d="M314.3 152.3h38.2v49h-38.2z"/><path class="st19" d="M319.4 162.2H347M319.4 170.7H347M319.4 179.2H347M319.4 187.7H347"/><g><path class="st15" d="M364.8 152.3H403v49h-38.2z"/><path class="st19" d="M369.9 162.2h27.6M369.9 170.7h27.6M369.9 179.2h27.6M369.9 187.7h27.6"/></g><path class="st19" d="M265 212h35.5M316 212h35.5M367 212h35.5"/></g><g><path class="st15" d="M263.8 225.3H302v49h-38.2z"/><path class="st19" d="M268.9 235.2h27.6M268.9 243.7h27.6M268.9 252.2h27.6M268.9 260.7h27.6"/><path class="st15" d="M314.3 225.3h38.2v49h-38.2z"/><path class="st19" d="M319.4 235.2H347M319.4 243.7H347M319.4 252.2H347M319.4 260.7H347"/><g><path class="st15" d="M364.8 225.3H403v49h-38.2z"/><path class="st19" d="M369.9 235.2h27.6M369.9 243.7h27.6M369.9 252.2h27.6M369.9 260.7h27.6"/></g><path class="st19" d="M265 285h35.5M316 285h35.5M367 285h35.5"/></g><path class="st15" d="M209 49h109.5v5H209zM326 49h33v5h-33z"/><g><path class="st11" d="M268.6 71h-.9l-1.4-6.7V71h-.8v-8.4h1.3l1.4 6.7 1.3-6.7h1.3V71h-.9v-6.8l-1.3 6.8zM273.2 68l-1.8-5.4h1l1.3 4.1 1.3-4.1h.9l-1.8 5.4v3h-.9v-3zM281.4 66.5v.9h-1.9V71h-.9v-8.4h3.3v.9h-2.4v3.1h1.9zM283.5 62.6V71h-.9v-8.4h.9zM284.5 71v-8.4h.9v7.5h2.4v.9h-3.3zM291.5 66.3v.8h-2.1v3h2.5v.9h-3.5v-8.4h3.5v.9h-2.5v2.9h2.1zM296.5 64.6v.2h-.9v-.3c0-.8-.3-1.2-1-1.2s-1 .4-1 1.2c0 1.9 2.8 2.1 2.8 4.4 0 1.3-.6 2.1-1.9 2.1s-1.9-.8-1.9-2.1v-.5h.9v.6c0 .8.3 1.2 1 1.2s1-.4 1-1.2c0-1.9-2.8-2.1-2.8-4.4 0-1.3.6-2.1 1.9-2.1 1.3 0 1.9.8 1.9 2.1z"/></g></g><g id="Character"><path class="st15" d="M164.6 198l28.7-33.9s.3-7.7-.3-9.2 1.4-7.5 2-9.5c.6-2-1.1-5.5.9-5.5s2.6 5.5 2.6 6.3v.9s4.9-12 5.5-13.2c.6-1.1 2.3-2.3 2.9 0s-2.9 10.9-2.9 10.9 2.6-.6 4 1.4 2.6 1.1 3.2 2.6c.6 1.4.9 2.6.9 2.6s3.7 1.7 4 2.9c.3 1.1-6 .9-6 .9s-6 9.8-8.3 10.9c-2.3 1.1-4.3 2.9-4.3 2.9s-17.2 38.7-20.4 43.9c-3.2 5.2-13.2 1.7-13.2 1.7l.7-16.6zM60.2 340.6l4 25s-10.3 23.5-7.5 35.6S69 451.7 69 451.7s-1.4 15.5-.6 16.9c.9 1.4 7.5 1.1 9.2.6 1.7-.6 4-1.7 4-6.3s-2.6-12-2.6-15.2-.3-37 5.2-58.2 4.3-39.9 4.3-41.3-28.3-7.6-28.3-7.6z"/><path class="st14" d="M68.5 458.8c-.3 4.3-.5 9 0 9.8.9 1.4 7.5 1.1 9.2.6 1.7-.6 4-1.7 4-6.3 0-1.6-.3-3.5-.7-5.5-5.2 2.9-9.8 2.3-12.5 1.4z"/><path class="st15" d="M77.7 469.1c1.2-.4 2.7-1.1 3.5-3.1-4.6.8-9.7.7-12.9.5 0 1 .1 1.8.3 2 .8 1.5 7.3 1.2 9.1.6zM117.8 344.6l8.6 15.2s.6 20.7 7.7 37.3 26.4 51.6 26.7 52.8c.3 1.1 0 5.7 0 10s.6 8.3 2.3 8.6 7.5 1.7 14.6 2.9c7.2 1.1 9.8-.6 10.3-2s-6-6-9.2-9.8c-3.2-3.7-8-10-10-16.6s-7.5-50.5-10.3-59.4-7.2-25.8-7.2-25.8l-2.9-20.7-30.6 7.5z"/><path class="st14" d="M188.1 469.4c.2-.6-.7-1.7-2.2-3.1-4.3 2.1-11.1-2.7-16.5-7-3.5-2.7-6.7-2.6-8.6-2.1v2.7c0 4.3.6 8.3 2.3 8.6 1.7.3 7.5 1.7 14.6 2.9 7.3 1.2 9.8-.6 10.4-2z"/><path class="st15" d="M187.3 470.5c-4.5 1.8-9.3-1.5-14.9-3.7-4.3-1.7-8.7-2.3-11.2-2.5.3 2.3.9 4 2 4.2 1.7.3 7.5 1.7 14.6 2.9 5.4.9 8.2.1 9.5-.9z"/><path class="st14" d="M73.7 239.9s-15.5 21.2-17.5 37.3c-2 16.1 1.4 67.7 1.4 67.7s6.6 5.2 34.4 7.2 59.4-11.5 59.4-11.5-8.6-49.1-13.5-63.7-16.1-36.1-16.1-36.1l-48.1-.9z"/><path class="st20" d="M88.4 300.5c8.1 7.7 20.7 19 30.7 24.8M80.2 292.5l3.7 3.7M96.9 312.9s15.3 13.4 21.3 16.7"/><path class="st15" d="M78 161.9s-23 13.8-21.8 16.4S73.7 240 73.7 240s5.5 3.4 22.4 3.4 25.8-2.6 25.8-2.6l10.9-35.6 27 12s2-8.3 2-11.5c0-3.2-2-10-2-10s-27.3-21.5-30.1-23.8c-2.9-2.3-17.8-8.3-17.8-8.3L78 161.9z"/><path class="st19" d="M102.7 214.4c1.1 1.4 2.2 2.7 3.4 3.7M90.6 190.3s4.1 12 9.9 21M94.3 209.5s6.6 10 11.8 13.8M132.8 205.2l-10.1-4"/><g><path class="st15" d="M119.8 112.5s1.1 8 2.6 12.3c1.4 4.3 5.5 4.9 5.5 7.2s-4.9 6.9-4.9 6.9-2 12.6-4 14.1c-2 1.4-10-2-10-2l-2 8.9-14.6-.3s.9-9.2-1.1-14.3c-2-5.2-3.7-8.9-3.7-8.9s-5.2-16.9 8.9-22.4c13.9-5.5 23.3-1.5 23.3-1.5z"/><path class="st14" d="M109.2 130.6s.3-1.7 3.2-4.3c2.9-2.6 1.7-5.7 2-9.5.3-3.7 3.2-2.9 4.9-2.6s6.3-2.6 0-10.6-26.4-7.7-32.4-3.4c-6 4.3-16.4 10.3-8.6 25.2s12 19.8 14.9 21.5c2.9 1.7 10.3-3.7 12-5.2 1.7-1.3 4-11.1 4-11.1z"/><path class="st14" d="M90 105.9s-2.3 8-7.7 10.6-15.2 4.3-18.6-1.1c-3.4-5.5-3.4-19.8 5.7-23.8s17.5 1.1 19.5 6 1.1 8.3 1.1 8.3z"/><path class="st15" d="M111.5 132.9s-5.2-10.6-5.2-4.9c0 5.7.9 11.5 1.7 12.3.9.9 3.2-1.1 3.2-1.1"/><path class="st11" d="M121.1 126.8c0 1-.3 1.9-.7 1.9s-.7-.8-.7-1.9c0-1 .3-1.9.7-1.9s.7.8.7 1.9z"/><path class="st19" d="M119 123.3s.5-2.1 2.1-1.4"/></g><path class="st15" d="M114.7 164.5l-38.8-1.2 7.5-7.4 28.1 1.4zM46.1 233s-5.2 5.5-5.7 16.9c-.6 11.5-3.4 45.6-3.4 49.3s0 16.4.9 18.1 6.6 4.3 6.6 4.3l-.3-4.9v-6.9s1.4 4.9 2.6 3.7c1.1-1.1-.3-5.7-.3-7.5s.6-6.3 0-9.5-2.3-7.7-2.3-7.7 9.2-26.7 11.2-33.3 3.4-14.6 3.4-14.6L46.1 233z"/><g><path class="st15" d="M56.2 178.2L46.1 233l14.4 7.5 8.3-18.4z"/><path class="st19" d="M60.2 207.8l8.6 14.3-12.5-13M56.3 201.4l2.3 3.9"/></g><path class="st15" d="M46.4 222.4l20.1 10.9-6.3 10.3-15.8-8.6zM158.6 193.4l-5.8 25.6h14.4l-1.5-21.8z"/></g></svg>