<svg id="Layer_1" xmlns="http://www.w3.org/2000/svg" viewBox="0 0 750 500"><style>.st2{opacity:.15;enable-background:new}.st3{opacity:.3}.st4{fill:none;stroke-linecap:round;stroke-linejoin:round;stroke-miterlimit:10}.st4,.st5,.st7{stroke:#000}.st5{stroke-linecap:round;stroke-linejoin:round;stroke-miterlimit:10}.st7{fill:none;stroke-width:1;stroke-miterlimit:9.9999}.st10{fill:#b2b2b2}.st11,.st13,.st14,.st15{fill:none;stroke:#263238;stroke-linecap:round;stroke-linejoin:round;stroke-miterlimit:10}.st13,.st14,.st15{fill:#fff}.st14,.st15{fill:#a1a1a1}.st15{fill:#ba9765}.st16,.st17{fill:#263238}.st17{stroke:#263238;stroke-linecap:round;stroke-linejoin:round;stroke-miterlimit:10}</style><g id="Background_Simple"><path d="M631.1 58.1c-11.2 3.2-22.6 5.7-34.2 7.4-52.5 7.8-173.4 24.5-232 22.1-76.1-3-317.2-86.2-335.4-38.4C11.3 97 16.6 447.5 52 454.8c35.4 7.3 160.7-49.9 234.7-52 73.9-2.1 250.8 54.1 323.6 57.2s79.3-8.3 96.4-69.7c17.1-61.4 35.4-263.1 32.1-309.9-2.7-39.8-80.5-30-107.7-22.3z" fill="#ba9765"/><path d="M631.1 58.1c-11.2 3.2-22.6 5.7-34.2 7.4-52.5 7.8-173.4 24.5-232 22.1-76.1-3-317.2-86.2-335.4-38.4C11.3 97 16.6 447.5 52 454.8c35.4 7.3 160.7-49.9 234.7-52 73.9-2.1 250.8 54.1 323.6 57.2s79.3-8.3 96.4-69.7c17.1-61.4 35.4-263.1 32.1-309.9-2.7-39.8-80.5-30-107.7-22.3z" opacity=".7" fill="#fff"/></g><g id="Plants"><path class="st2" d="M28.8 218.8c12.3 2.9 27.9.7 32.7-.1 0 6.6.1 13.6.8 20.8.9 10.1 2.4 20.7 5.3 31.4 0 .1.1.2.1.4-1.8-2.9-7.2-10.7-7.7-11.3-6.8-7.8-24.5-19-35.1-14.4-7.7 3.3-9.9 12.5-6.1 19.5 3.9 7.2 13.4 10.7 21 11.8 8.6 1.3 26.8-4 28.2-4.4 2.9 10.2 6.6 20.4 11 30.5 2.5 5.8 5.2 11.5 8 17.3-1.7-2.4-3.2-4.6-3.4-4.9-6.8-7.8-24.5-19-35.1-14.4-7.7 3.3-9.9 12.5-6.1 19.5 3.9 7.2 13.4 10.7 21 11.8 7.8 1.1 23.3-3 27.4-4.2 1.1 2.2 2.1 4.4 3.2 6.6 5.3 10.5 10.6 20.9 15.4 31.3 1.7 3.7 3.3 7.3 4.9 11-1.5-2.2-2.7-4-3-4.2-6.8-7.8-24.5-19-35.1-14.4-7.7 3.3-9.9 12.5-6.1 19.5 3.9 7.2 13.4 10.7 21 11.8 7.4 1.1 21.8-2.6 26.7-4 1.5 3.8 3 7.6 4.3 11.4.8 2.6 1.8 5 2.5 7.6.7 2.6 1.4 5.2 2.2 7.7 1.2 5 2.4 10.1 3.5 14.9.7 3.4 1.4 6.6 2.1 9.9-1.7-3.7-5.1-10.8-5.4-11.3-5.5-8.8-21.3-22.5-32.5-19.6-8.1 2.1-11.7 10.8-9 18.3 2.8 7.7 11.6 12.6 19 14.9 8.1 2.5 26.2.2 28.4-.1 1.1 5.4 2.1 10.6 2.9 15.6.7 4.1 1.4 8 2 11.7h7.2c-.7-4.1-1.6-8.5-2.5-13-1.1-5.5-2.3-11.3-3.7-17.3 1.4-.5 9-3.6 15.9-7.5 5.9 6.4 21.1 13.9 23.1 14.9-2.1 5.1-4.1 10-6.2 14.6-1.2 2.8-2.4 5.5-3.6 8.2h7.7c.8-1.8 1.5-3.6 2.3-5.5 2.1-5.2 4.3-10.7 6.5-16.4 2.2.5 20 4.1 28.3 2.2 7.5-1.7 16.7-6 20.1-13.4 3.3-7.3.3-16.3-7.6-19-11-3.7-27.8 8.8-33.9 17.1-.4.5-3.7 6.3-5.7 9.9.9-2.3 1.8-4.6 2.6-7 1.8-4.8 3.4-9.6 5.1-14.8.8-2.5 1.5-5.1 2.3-7.7.8-2.5 1.4-5.3 2.1-8 1.5-6.3 2.7-12.7 3.8-19.2 4.2 1.5 19.1 6.7 26.9 6.2 7.7-.5 17.4-3.4 21.9-10.2 4.4-6.7 2.8-16.1-4.6-19.9-10.3-5.3-28.8 4.5-36.1 11.8-.5.5-5.1 6.3-7.6 9.5.6-3.9 1.2-7.8 1.7-11.8 1.4-11.5 2.5-23.2 3.6-34.8.3-3.6.7-7.1 1.1-10.7 1.5.6 19.1 7.1 27.8 6.5 7.7-.5 17.4-3.4 21.9-10.2 4.4-6.7 2.8-16.1-4.6-19.9-10.3-5.3-28.8 4.5-36.1 11.8-.6.6-7.3 9-8.9 11.2.8-7.8 1.7-15.6 2.9-23.3 1.6-10.6 3.8-20.8 6.7-30.6.7.3 19.1 7.2 28 6.6 7.7-.5 17.4-3.4 21.9-10.2 4.4-6.7 2.8-16.1-4.6-19.9-10.3-5.3-28.8 4.5-36.1 11.8-.5.5-5.6 6.9-8 10-.3-.2-.3-.1-.6-.3 3.2-10.5 7.6-20.2 12.2-29.1 2.6-5.2 5.4-9.9 8.3-14.5 3.3 1.6 18.4 9 26.5 9.3 7.7.3 17.7-1.4 22.8-7.8 5.1-6.2 4.6-15.7-2.4-20.3-9.7-6.4-29.1 1.3-37.2 7.7-.3.2-2.3 2.3-4.5 4.5v-1.7c.3-.5.6-1 1-1.5 4.8-7.3 9.7-13.7 14.1-19.3 2.5-3.2 4.9-6 7.1-8.6 4.1-.1 20.5-.6 27.6-3.9 7-3.3 15-9.4 16.7-17.4 1.7-7.8-3.2-16-11.5-16.9-11.5-1.2-25.2 14.6-29.4 24-.4.8-4.6 14.3-4.4 14.3h.2c-2.2 2.5-4.5 5.2-7 8.1-4.5 5.5-9.5 11.8-14.5 18.9-.1-11.1-2.1-34.3-16.8-35.7-19.4-1.9-25 20.3-12.9 32.4 8.4 8.4 19.6 9.6 25.5 9.5-3.7 5.6-7.5 11.5-11 18-4.8 8.9-9.4 18.5-12.9 29.1 0 .1-.1.2-.1.4.1-3.4-.1-12.9-.2-13.6-1.3-10.3-9.9-29.3-21.3-31.4-8.2-1.5-15.2 4.9-15.8 12.9-.7 8.2 5.2 16.3 11 21.5 6.5 5.8 24.6 11.4 26 11.9-3.2 10.1-5.7 20.6-7.6 31.5-1.1 6.2-2 12.5-2.9 18.8 0-2.9-.1-5.6-.2-5.9-1.3-10.3-9.9-29.3-21.3-31.4-8.2-1.5-15.2 4.9-15.8 12.9-.7 8.2 5.2 16.3 11 21.5 5.9 5.2 21.1 10.3 25.2 11.6-.3 2.4-.6 4.8-.9 7.3-1.4 11.6-2.7 23.2-4.4 34.6-.6 4-1.3 7.9-2 11.8 0-2.6-.1-4.8-.1-5.1-1.3-10.3-9.9-29.3-21.3-31.4-8.2-1.5-15.2 4.9-15.8 12.9-.7 8.2 5.2 16.3 11 21.5 5.6 5 19.7 9.8 24.5 11.4-.8 4-1.7 8-2.7 11.8-.7 2.6-1.3 5.2-2.2 7.7-.8 2.6-1.6 5.1-2.5 7.6-1.7 4.8-3.5 9.7-5.3 14.4-1.2 3.2-2.5 6.3-3.7 9.4.6-4 1.7-11.8 1.7-12.4.2-6.9-2.3-18.1-7.1-25.9 0-1 0-2-.2-3-1.3-7.9-8.7-13.8-16.8-11.6-11.2 3-18.3 22.6-18.8 33 0 .6.4 7.3.7 11.5-.6-2.4-1.1-4.8-1.7-7.3-1.2-5-2.5-9.9-3.9-15.2-.8-2.5-1.5-5.1-2.3-7.7-.7-2.6-1.8-5.2-2.7-7.8-2.2-6.1-4.8-12.1-7.4-18.1 4.3-1 19.7-5 25.8-9.7 6.1-4.7 12.6-12.4 12.6-20.6-.1-8-6.5-14.9-14.8-14-11.5 1.3-21.5 19.6-23.6 29.7-.1.6-.8 8.1-1.1 12.2-1.6-3.6-3.3-7.2-5.1-10.8-5.2-10.4-10.7-20.7-16.2-31.1-1.7-3.2-3.3-6.3-5-9.5 1.5-.4 19.9-4.6 26.8-9.9 6.1-4.7 12.6-12.4 12.6-20.6-.1-8-6.5-14.9-14.8-14-11.5 1.3-21.5 19.6-23.6 29.7-.2.8-1.1 11.5-1.2 14.2-3.6-7-7.2-14-10.4-21-4.5-9.7-8.3-19.5-11.3-29.2.7-.2 19.9-4.5 27-9.9 6.1-4.7 12.6-12.4 12.6-20.6-.1-8-6.5-14.9-14.8-14-11.5 1.3-21.5 19.6-23.6 29.7-.1.7-.9 8.8-1.1 12.7-.4 0-.3 0-.7.1-3.1-10.5-4.8-21-5.9-31-.6-5.8-.9-11.3-1.1-16.7 3.7-.4 20.3-2.7 27.2-6.8 6.6-4 13.9-10.9 14.8-19.1.8-8-4.8-15.6-13.2-15.6-11.6 0-23.5 17.1-26.7 27-.2.5-1.3 6.2-2.1 10.3 0-2.4-.1-4.9-.1-7.3 0-8.8.6-16.8 1.1-23.9.3-4 .7-7.7 1.1-11.1 3.4-2.3 16.8-11.8 20.9-18.5 4-6.6 7.3-16.1 4.3-23.7-2.9-7.5-11.5-11.6-18.9-7.8-10.3 5.3-13 26.1-11.3 36.3.1.9 4 14.4 4.2 14.3l.2-.1c-.5 3.3-.9 6.8-1.3 10.6-.7 7.1-1.4 15.1-1.6 23.9 0 1.6-.1 3.3-.1 4.9-4.4-6.8-18.4-25.9-33.4-21.9-18.8 4.3-14.6 20.5.2 24zM702.2 261.9c-10.2 2.4-23 .6-27-.1 0 5.5-.1 11.2-.7 17.2-.7 8.3-1.9 17.1-4.3 25.9 0 .1-.1.2-.1.3 1.5-2.4 5.9-8.8 6.3-9.3 5.6-6.5 20.2-15.7 29-11.9 6.3 2.7 8.2 10.3 5 16.1-3.3 5.9-11 8.9-17.4 9.8-7.1 1-22.1-3.3-23.3-3.7-2.4 8.4-5.5 16.8-9.1 25.2-2.1 4.8-4.3 9.5-6.6 14.3 1.4-2 2.6-3.8 2.8-4 5.6-6.5 20.2-15.7 29-11.9 6.3 2.7 8.2 10.3 5 16.1-3.3 5.9-11 8.9-17.4 9.8-6.4.9-19.3-2.5-22.7-3.5l-2.7 5.4c-4.3 8.6-8.7 17.3-12.7 25.8-1.4 3-2.7 6-4 9.1 1.2-1.8 2.3-3.3 2.4-3.5 5.6-6.5 20.2-15.7 29-11.9 6.3 2.7 8.2 10.3 5 16.1-3.3 5.9-11 8.9-17.4 9.8-6.1.9-18-2.2-22.1-3.3-1.2 3.1-2.5 6.3-3.5 9.4-.7 2.1-1.5 4.1-2 6.3-.6 2.1-1.2 4.3-1.8 6.4-1 4.1-2 8.3-2.9 12.3-.6 2.8-1.2 5.5-1.7 8.1 1.4-3 4.2-8.9 4.5-9.4 4.5-7.2 17.6-18.5 26.9-16.2 6.7 1.7 9.7 8.9 7.4 15.1-2.3 6.3-9.6 10.4-15.7 12.3-6.7 2.1-21.6.2-23.5-.1-.9 4.4-1.7 8.8-2.4 12.9-.6 3.4-1.1 6.6-1.6 9.7h-6c.6-3.4 1.3-7 2-10.7.9-4.5 1.9-9.3 3-14.3-1.1-.4-7.5-3-13.1-6.2-4.9 5.3-17.5 11.5-19.1 12.3 1.7 4.2 3.4 8.3 5.1 12.1 1 2.3 2 4.6 3 6.8h-6.3c-.6-1.5-1.3-3-1.9-4.6-1.8-4.3-3.5-8.8-5.3-13.6-1.8.4-16.5 3.4-23.4 1.8-6.2-1.4-13.8-4.9-16.6-11.1-2.7-6-.3-13.5 6.3-15.7 9.1-3 22.9 7.3 28 14.1.3.4 3.1 5.2 4.7 8.2-.7-1.9-1.4-3.8-2.2-5.8-1.4-3.9-2.8-7.9-4.2-12.2-.6-2.1-1.3-4.2-1.9-6.3-.7-2.1-1.1-4.4-1.7-6.6-1.2-5.2-2.2-10.5-3.1-15.9-3.5 1.3-15.8 5.6-22.2 5.1-6.4-.4-14.4-2.8-18-8.5-3.6-5.5-2.3-13.3 3.8-16.4 8.5-4.4 23.8 3.7 29.8 9.7.4.4 4.2 5.2 6.3 7.9-.5-3.2-1-6.5-1.4-9.7-1.2-9.5-2.1-19.1-3-28.8-.3-2.9-.6-5.9-.9-8.8-1.2.5-15.8 5.9-23 5.4-6.4-.4-14.4-2.8-18-8.5-3.6-5.5-2.3-13.3 3.8-16.4 8.5-4.4 23.8 3.7 29.8 9.7.5.5 6 7.4 7.3 9.2-.7-6.5-1.4-12.9-2.4-19.2-1.4-8.7-3.2-17.2-5.5-25.3-.6.2-15.8 5.9-23.1 5.4-6.4-.4-14.4-2.8-18-8.5-3.6-5.5-2.3-13.3 3.8-16.4 8.5-4.4 23.8 3.7 29.8 9.7.4.4 4.6 5.7 6.6 8.2.3-.1.2-.1.5-.3-2.6-8.6-6.3-16.7-10-24-2.2-4.3-4.5-8.2-6.8-12-2.7 1.4-15.2 7.4-21.9 7.7-6.4.3-14.6-1.2-18.9-6.4-4.2-5.1-3.8-12.9 2-16.7 8-5.3 24 1.1 30.7 6.4l3.7 3.7v-1.4c-.3-.4-.5-.8-.8-1.2-4-6-8-11.3-11.7-16-2.1-2.6-4-5-5.8-7.1-3.4-.1-16.9-.5-22.8-3.3-5.8-2.7-12.4-7.8-13.8-14.4-1.4-6.5 2.6-13.2 9.5-13.9 9.5-1 20.8 12 24.3 19.8.3.7 3.8 11.8 3.6 11.8h-.2c1.8 2 3.7 4.3 5.7 6.7 3.7 4.5 7.8 9.7 12 15.6.1-9.2 1.7-28.3 13.9-29.5 16-1.5 20.6 16.8 10.7 26.7-7 7-16.2 7.9-21.1 7.9 3.1 4.6 6.2 9.5 9.1 14.9 4 7.4 7.8 15.3 10.7 24 0 .1.1.2.1.3 0-2.8.1-10.6.2-11.3 1.1-8.5 8.2-24.2 17.6-26 6.8-1.3 12.5 4.1 13.1 10.7.6 6.7-4.3 13.5-9.1 17.7-5.4 4.8-20.3 9.4-21.5 9.8 2.7 8.3 4.7 17 6.3 26 .9 5.1 1.7 10.3 2.4 15.5 0-2.4.1-4.6.1-4.9 1.1-8.5 8.2-24.2 17.6-26 6.8-1.3 12.5 4.1 13.1 10.7.6 6.7-4.3 13.5-9.1 17.7-4.8 4.3-17.5 8.5-20.8 9.6.2 2 .5 4 .8 6 1.1 9.6 2.3 19.2 3.6 28.6.5 3.3 1.1 6.5 1.7 9.8 0-2.2.1-4 .1-4.2 1.1-8.5 8.2-24.2 17.6-26 6.8-1.3 12.5 4.1 13.1 10.7.6 6.7-4.3 13.5-9.1 17.7-4.6 4.1-16.2 8.1-20.2 9.4.7 3.3 1.4 6.6 2.2 9.8.6 2.1 1.1 4.3 1.8 6.4.7 2.1 1.4 4.2 2 6.3 1.4 4 2.9 8 4.4 11.9 1 2.7 2 5.2 3.1 7.7-.5-3.3-1.4-9.7-1.4-10.3-.1-5.7 1.9-14.9 5.9-21.4 0-.8 0-1.7.2-2.5 1-6.5 7.2-11.4 13.9-9.6 9.3 2.5 15.1 18.7 15.6 27.2 0 .5-.3 6-.6 9.5.5-2 .9-4 1.4-6 1-4.1 2.1-8.1 3.2-12.5.6-2.1 1.3-4.2 1.9-6.3.6-2.1 1.5-4.3 2.2-6.5 1.8-5 3.9-10 6.2-15-3.6-.9-16.3-4.1-21.3-8-5.1-3.9-10.4-10.2-10.4-17 0-6.6 5.4-12.3 12.2-11.6 9.5 1 17.8 16.2 19.5 24.6.1.5.7 6.7.9 10.1 1.4-3 2.7-6 4.2-8.9 4.3-8.6 8.8-17.1 13.4-25.6 1.4-2.6 2.7-5.2 4.1-7.9-1.3-.3-16.4-3.8-22.1-8.2-5.1-3.9-10.4-10.2-10.4-17 0-6.6 5.4-12.3 12.2-11.6 9.5 1 17.8 16.2 19.5 24.6.1.6.9 9.5 1 11.7 3-5.8 5.9-11.5 8.6-17.4 3.7-8 6.9-16.1 9.3-24.1-.6-.1-16.4-3.7-22.3-8.2-5.1-3.9-10.4-10.2-10.4-17 0-6.6 5.4-12.3 12.2-11.6 9.5 1 17.8 16.2 19.5 24.6.1.6.7 7.3.9 10.5.3 0 .2 0 .5.1 2.6-8.7 4-17.4 4.9-25.6.5-4.8.8-9.3.9-13.8-3-.4-16.8-2.2-22.5-5.7-5.5-3.3-11.5-9-12.2-15.8-.7-6.6 4-12.9 10.9-12.9 9.6 0 19.4 14.1 22.1 22.3.1.4 1.1 5.1 1.8 8.5 0-2 .1-4.1.1-6 0-7.2-.5-13.9-.9-19.7-.3-3.3-.6-6.3-.9-9.2-2.8-1.9-13.8-9.7-17.2-15.3-3.3-5.5-6-13.3-3.6-19.6 2.4-6.2 9.5-9.6 15.6-6.4 8.5 4.4 10.7 21.5 9.3 30-.1.7-3.3 11.9-3.5 11.8 0 0-.1-.1-.2-.1.4 2.7.7 5.6 1.1 8.8.6 5.9 1.2 12.5 1.4 19.8 0 1.3.1 2.7.1 4.1 3.6-5.6 15.2-21.4 27.6-18 15 4.3 11.5 17.6-.6 20.5z"/></g><g id="Graphics"><g class="st3"><path class="st4" d="M679.7 52.4v86.8H574.6V52.4h35.2v3.5c0 2.1 1.7 3.8 3.8 3.8s3.8-1.7 3.8-3.8v-3.5h19.3v3.5c0 2.1 1.7 3.8 3.8 3.8s3.8-1.7 3.8-3.8v-3.5h35.4z"/><path class="st4" d="M580.9 76.8h13.2V90h-13.2zM600.7 76.8h13.2V90h-13.2zM620.5 76.8h13.2V90h-13.2zM640.3 76.8h13.2V90h-13.2zM660.1 76.8h13.2V90h-13.2z"/><g><path class="st4" d="M580.9 97.2h13.2v13.2h-13.2zM600.7 97.2h13.2v13.2h-13.2zM620.5 97.2h13.2v13.2h-13.2zM640.3 97.2h13.2v13.2h-13.2zM660.1 97.2h13.2v13.2h-13.2z"/></g><g><path class="st4" d="M580.9 117.5h13.2v13.2h-13.2zM600.7 117.5h13.2v13.2h-13.2zM620.5 117.5h13.2v13.2h-13.2zM640.3 117.5h13.2v13.2h-13.2zM660.1 117.5h13.2v13.2h-13.2z"/></g><g><path class="st5" d="M617.5 42.7v13.2c0 2.1-1.7 3.8-3.8 3.8s-3.8-1.7-3.8-3.8V42.7c0-2.1 1.7-3.8 3.8-3.8s3.8 1.7 3.8 3.8zM644.5 42.7v13.2c0 2.1-1.7 3.8-3.8 3.8-2.1 0-3.8-1.7-3.8-3.8V42.7c0-2.1 1.7-3.8 3.8-3.8 2 0 3.8 1.7 3.8 3.8z"/></g></g><g class="st3"><path class="st4" d="M387.9 424.9h14.6v33.7h-14.6zM407.4 407.7H422v51h-14.6zM426.9 385.9h14.6v72.7h-14.6zM446.4 370.9H461v87.7h-14.6z"/></g><g class="st3"><ellipse cx="183" cy="77.4" rx="53.1" ry="53.1" fill="none" stroke="#000" stroke-miterlimit="10"/><ellipse class="st7" cx="183" cy="77.5" rx="42.5" ry="42.5"/><ellipse class="st7" cx="183" cy="77.5" rx="27.2" ry="27.2"/><ellipse class="st7" cx="183" cy="77.5" rx="15.4" ry="15.4"/><path d="M189.5 77.5c0-3.6-2.9-6.5-6.5-6.5s-6.5 2.9-6.5 6.5 2.9 6.5 6.5 6.5c3.6-.1 6.5-3 6.5-6.5z" fill="none" stroke="#000" stroke-miterlimit="10"/></g><path fill="none" d="M180.4 77.5h-91"/><path class="st10" d="M181.7 78.7h-71.4v-2.6h71.4c.7 0 1.3.6 1.3 1.3 0 .8-.6 1.3-1.3 1.3z"/><path class="st10" d="M104 68.3l.3.5 7.5 7.4H89.5l-8-7.9zM81.5 86.3l8-7.6h22.3c-2.9 2.2-5.5 4.8-7.9 7.6H81.5z"/></g><g id="Floor"><path class="st11" d="M706.2 466.6h28.2M239.8 466.6h454.9M22.1 466.6h210.7"/></g><g id="Character_3"><path d="M496.1 402.2l2.4 18s2.9 22.2 3.6 27.4c.7 5.2.4 18.8.4 18.8h-10.2l-.1-19.2.3-32.8 3.6-12.2z" fill="gray" stroke="#263238" stroke-linecap="round" stroke-linejoin="round" stroke-miterlimit="10"/><path class="st13" d="M502.5 460.8c0 3.2-.1 5.5-.1 5.5h-10.2l-.1-8.1 10.4 2.6z"/><path class="st13" d="M502.5 464.2v2.1h-10.2v-2.1h10.2z"/><path class="st13" d="M481 456.6s-3.8 3.8-5.7 4.6c-1.9.8-4.8 1.1-5.2 2-.4.9-.1 3.6-.1 3.6h25.3s.7-2.2.4-3.8c-.3-1.6-.7-2.4-.7-2.4s-12.4-4.2-14-4z"/><path class="st13" d="M495.3 466.8H470s-.1-1.1-.1-2.1h25.8c-.1 1.1-.4 2.1-.4 2.1z"/><path class="st14" d="M502.6 376.6s-.1 8.1-1.3 10.3-3.6 6.1-3.6 6.1-3 25-2.5 27.4c.5 2.4 2.2 8.6 2.1 13-.1 4.4-2.4 22.8-2.4 22.8s.7 1.2.5 1.6c-.1.4-.4 2.8-.4 2.8s-4.1-.7-7-1.5c-2.9-.8-7-2.5-7-2.5s-.5-1.6-.1-2.5 1.5-3.6 1.5-3.6-.4-15.6-.4-18.3-2.1-14.2-2.1-16.5c0-2.4-2.5-24.5-2.1-27s.7-6.4.7-6.4l-.7-6 24.8.3z"/><path class="st11" d="M488.7 396.4c.1 7.3.3 20.5.1 22.6M488.7 391.6v2.4M489.1 421.9s.8 5.3 1.1 11.8-.9 20.2-.9 20.2.5 1.3.5 1.9c0 .5-.8 2.2-.8 2.2"/><path class="st15" d="M499 332.3s5.9 9.2 6.8 12.9-2.4 22-2.4 22 1.3 8.4.9 9.2-1.2 1.4-1.2 1.4h-25.5s-1.1-1.9-1.2-2.9c-.1-1-.3-2.1.2-3.8.5-1.7 1.7-21.5 2.9-25.1 1.2-3.6 6.5-10.3 6.5-10.3l13-3.4z"/><path class="st13" d="M481.4 318.8c.2-1.2 2.1-2.3 2.8-3.2.7-1 .3-1.8.8-2.9 1.6-3.2 2.8-6.1 6.5-7 4.6-1 11.8 1.3 13.9 5.3 1.6 2.9 1.6 6.8.5 9.9-.5 1.6-1.4 3-2.7 4.1-.4.3-4.5 2.2-4.4 2l-.4 3.2-11.4 2.9-.5-5.1s-2 0-3.3-.3-1.7-.8-1.4-1.9c.3-1.1 1.2-5.1 1.2-5.1-.4-.4-1.1-.8-1.4-1.3-.2-.1-.2-.3-.2-.6z"/><path class="st16" d="M485.9 315.3c-.2.6-.1 1.2.2 1.3s.8-.3 1-.9c.2-.6.1-1.2-.2-1.3s-.8.2-1 .9z"/><path class="st11" d="M488.6 313.7s-.4-1.8-2.4-1.6M483.4 322.8s1.3.3 2.5-.9"/><path class="st17" d="M498.6 323.3c1-1.5.5-4.3-1.2-5s-3.6 1.8-4.1 1.7c-.5-.2 1.2-3 1.2-3s-2-1.2-2.5-2.7c-.5-1.5 3-3 4-3.2 1-.2-4.5-5.5-4.5-5.5 4.6-1 11.8 1.3 13.9 5.3 1.6 2.9 1.6 6.8.5 9.9-.5 1.6-1.4 3-2.7 4.1-.3.3-3.4 1.7-4.2 2h-.2l-2.9-2c.1.2 1.7-.1 2.7-1.6zM485.1 337l-3.9 5.4-1.3 28.8-2.2 5.2-2.8-9.3 5.8-25.7 4-6.8z"/><path class="st15" d="M498.8 329.1l-14 4.7.5 5.7 14.6-6.8z"/><path class="st17" d="M486.5 328.2l2.7-.2-2.2 3.4z"/><path fill="#dedede" stroke="#263238" stroke-linecap="round" stroke-linejoin="round" stroke-miterlimit="10" d="M448.5 340l13.7-10.1 6.6 26.5-2.1 2.2z"/><path class="st13" d="M454.5 326.2l13 30.8 12.4 14.3-7.6 6.3-11.3-17.5s-14.5-18.2-14.9-19.4c-.4-1.2 8.4-14.5 8.4-14.5z"/><g><path class="st13" d="M478.4 358.3l-7.5-2.8s-2.2-3.2-2.5-3.8c-.3-.7-4-2-4.5-2.5s-2.2-2.3-2.3-1.5-.5 1.7.3 2.2c.8.5 2.5 2.7 2.5 2.7s-4-.3-4.3.7c-.3 1 .7 3 .7 3s1.3.2 1.8.7c.5.5 1.5 2.7 2.7 3.2 1.2.5 5.3.7 5.3.7l4.6 3.6 3.2-6.2z"/><path class="st15" d="M473.5 356.3l-2.2-.8s-2.2 5.3-2 5.4c.2.1 2.3.7 2.3.7l1.9-5.3z"/><path class="st15" d="M502.3 344.8c.3.9.4 1.8.4 2.4-.1 1.9-5.5 24.6-5.9 26-.4 1.4-3.7 2.2-4.8 1.9s-20.6-12.3-20.8-12.8 1.3-6.2 2.3-6.5c1-.3 13.6 5 13.6 5s.6-14.2 1.4-16.7"/><path class="st11" d="M487.8 361l4.6 2.4M492.5 361.9l-3.1-.7"/></g></g><g id="Character_2"><path class="st13" d="M289.5 143.3l4.2 18.9 13.1-3.5 1.2 3.9-19.2 11.6-4.1-9.4z"/><path class="st13" d="M270.4 137l-13.1 6.1 3.3 30 21.6.4 6-13.8 1.3-16.4-9.7-4.8z"/><path class="st13" d="M266.7 139l2.7 11.4 13.8.9-.9-10.9-2.6-1.9c.1 0-11-2.8-13 .5z"/><path class="st13" d="M281.8 114.8c2.9.4 5.6 1.8 6.7 4.2 1.8 3.9.3 7.9.9 8.8.6.9 1.5 3.3 1.5 3.3l-2.4 1.5s-2.5 4.7-3.5 5.3-4.4-1.1-4.4-1.1l-2.4 4.5-7.9-6.6 3.3-6.3s-3-5.7-1.5-9.4c1.5-3.3 5.8-4.7 9.7-4.2z"/><path class="st16" d="M288 127.7c0 .7-.3 1.2-.6 1.2s-.6-.5-.6-1.2.3-1.2.6-1.2c.4 0 .6.5.6 1.2z"/><path class="st13" d="M286.6 133.8s-.9-.1-1.5-1M286.5 124.9s1.4-.8 2.1.3"/><path class="st17" d="M260.6 173.1s-6.1 6.4-7.2 18.5c-1.1 12.2-2.8 35.2-2.8 35.2l-5.8 36.5 7.2.3 11.6-35.7 7.8-28 9.1 28.2 6 35.8 6.9-.8-.5-43.8-1.1-7.1c-1.5-9.4-4-18.7-7.7-27.5l-.3-.8-1.7-10.4-21.5-.4zM289.2 119.2s.7 3-3.7 6l-4.4 3s-.6 20.8-1.1 21.9c-.6 1.1-13.8-10.8-13-13.3.8-2.5 1.9-9 1.9-11s.3-7.3 3.6-10.6 17.7-2.5 18.5.3c.9 2.8-1.8 3.7-1.8 3.7z"/><path class="st13" d="M257.3 143.1l-15 25-3.8 22.7 4 .3 7.5-21.6 8.7-10.7c.1 0 .6-11.7-1.4-15.7z"/><path class="st13" d="M246.4 196.2s-1.6-2.2-1.8-2.5c-.2-.3-2-2.6-2-2.6s-3.5-1.4-4-.3c-.5 1.1-1.3 8.7-1.4 9.3-.1.6.6 1.1.6 1.1l.6-3.1s.3 3.2.3 4.1c0 .9.9.7.9.7l.3-4.7s.9 3.8 1.1 4.7 1.1.5 1.1.2.2-5.4.2-5.4.8 3.1 1 3.8c.2.7 1-.3 1-.3l-.2-4.9s.4.2 1.6.7c1.3.5.7-.8.7-.8z"/><path class="st11" d="M244.2 196.4l-1-2.7"/><path class="st13" d="M306.8 158.7l1.6-4.5 2.7-2.3s.1-2.2.9-2.3c.8-.1 1.1.3.9 1.5s-.9 2.4-.9 2.4 1.8-1.2 2.2-.5.3 6.7-.1 7.5c-.4.8-6.1 2-6.1 2l-1.2-3.8z"/><path class="st13" d="M312 153.5l-1.5 1.5s-.5 5.5 0 5.5h3.5M244.8 263.4l-2 5.6s-1.3 2.2-1.6 4c-.2 1.8 6.7.9 7.8.9 1.1 0 2.2-.2 2.9-.9.7-.7 0-9.4 0-9.4l-7.1-.2zM293.5 263.3l2.4 4.9s5.6 2.2 5.8 3.6c.2 1.3 0 2-1.3 2.2-1.3.2-15.6 0-15.6 0v-4.5c0-1.1 1.8-5.4 1.8-5.4l6.9-.8z"/><g><path class="st13" d="M321.8 401.6l-3 3-120.1-94.2 3.1-3z"/><path class="st13" d="M198.7 401.6l3.1 3 120-94.2-3-3z"/><path class="st13" d="M320.1 279.6h4.3v187.1h-4.3zM199.2 279.6h4.3v187.1h-4.3z"/><path class="st13" d="M201.2 306h118.9v4.3H201.2zM201.2 402h118.9v4.3H201.2z"/><g><path class="st13" d="M303.2 401.6l-3 3-120.1-94.2 3-3z"/><path class="st13" d="M180.1 401.6l3 3 120.1-94.2-3-3z"/></g><g><path class="st13" d="M182.5 306h118.9v4.3H182.5zM182.5 402h118.9v4.3H182.5z"/><path class="st13" d="M178.6 279.6h4.3v187.1h-4.3zM301.3 279.6h4.3v187.1h-4.3z"/></g><path class="st17" d="M171.2 274.3h160.3v8.1H171.2z"/></g></g><g id="Gears_1_"><path class="st11" d="M310.2 220.7V8.9M435 135.6V8.9"/><path class="st17" d="M395.9 322.4c0-1 .1-2 0-3-.5-10.9-3.2-21.3-7.7-30.6l25.8-22.6-23.6-26.9h-6.2l-.5 5.9-18 15.8c-9.2-7.3-20.1-12.4-31.9-15l-1.6-33.4H326l-28 33.8c-11.9 2.9-22.7 8.6-31.8 16.1l-26.9-19.4h-6.2l.9 4 1.7.9-17.4 24.1 26.3 19c-4.7 10.6-7.2 22.3-6.8 34.6l-32.6 9.1 8.6 30.8-5.2 3.7h6.2l32.2-9c5.5 10.3 13 19.2 22.2 26.2l-13.6 32.1 26.3 11.2.5 2.8h6.2L302 401c6 1.2 12.3 1.7 18.7 1.4 5.1-.2 10.1-1 14.9-2.2l13.6 25.1-2.8 6.2h6.2l31.5-17.1-16.6-30.4c8.7-7.2 15.8-16.2 20.7-26.5l28.2 5 .4 1.2h6.2l6.3-35.3-33.4-6zm-77.4 36c-19.4.9-35.9-14-36.8-33.4-.9-19.4 14-35.9 33.4-36.8s35.9 14 36.8 33.4c1 19.4-14 35.8-33.4 36.8z"/><path class="st15" d="M382.1 357.5l34.8 6.2 6.3-35.3-33.4-6c0-1 .1-2 0-3-.5-10.9-3.2-21.3-7.7-30.6l25.8-22.6-23.6-26.9-24.8 21.7c-9.2-7.3-20.1-12.4-31.9-15l-1.6-33.4-35.8 1.7 1.5 32c-11.9 2.9-22.7 8.6-31.8 16.1L233 243l-21 29 26.3 19c-4.7 10.6-7.2 22.3-6.8 34.6l-32.6 9.1 9.6 34.5 32.2-9c5.5 10.3 13 19.2 22.2 26.2l-13.6 32.1 33 14 13.4-31.6c6 1.2 12.3 1.7 18.7 1.4 5.1-.2 10.1-1 14.9-2.2l16.9 31.3 31.5-17.1-16.3-30.3c8.6-7.3 15.8-16.3 20.7-26.5zm-106.5-32.6c-.9-19.4 14-35.9 33.4-36.8 19.4-.9 35.9 14 36.8 33.4.9 19.4-14 35.9-33.4 36.8-19.4 1-35.9-14-36.8-33.4z"/><g><path class="st17" d="M498.5 206.6c4-8.3 6.2-16.9 6.7-25.6l28.1-6.2-6.5-29.3h-6.2l.3 1.3-21 4.6c-3.9-9.1-9.7-17.3-17.4-23.9l12.3-25.2-27-13.2h-6.2l5 2.4-10.6 21.7c-9.9-2.7-20.1-2.9-29.9-1L414.2 87H408l1.2 2.4L387 99.9l11.6 24.6c-7.7 5.9-14.3 13.5-19 22.7l-27.6-6.5h-6.2v2.2l5.5.8-6.2 26.2 27.3 6.4c-.1 9.8 1.8 19.4 5.8 28.2l-23 18.1 14.8 18.9-2.4 4.8h6.2l22.6-17.8c4 3.3 8.3 6.2 13.2 8.6 3.9 1.9 7.9 3.3 11.9 4.4l-.2 29.9 30.1.2.2-29c9.3-1.8 18.2-5.6 25.9-11.1l19.3 15.6-2.4 3h6.2l18.9-23.4-22.1-17.9c.3-.8.8-1.5 1.1-2.2zm-33.1-16.3c-7.2 14.6-24.8 20.7-39.5 13.5-14.6-7.2-20.7-24.8-13.5-39.5s24.8-20.7 39.5-13.5c14.6 7.2 20.6 24.9 13.5 39.5z"/><path class="st15" d="M471.4 231.4l23 18.6 18.9-23.4-22.1-17.9c.4-.7.8-1.4 1.2-2.2 4-8.3 6.2-16.9 6.7-25.6l28.1-6.2-6.5-29.3-26.9 6c-3.9-9.1-9.7-17.3-17.4-23.9l12.3-25.2-27-13.2-11.8 24.2c-9.9-2.7-20.1-2.9-29.9-1l-11.9-25.2-27.2 12.9 11.6 24.6c-7.7 5.9-14.3 13.5-19 22.7l-27.6-6.5-6.9 29.3 27.3 6.4c-.1 9.8 1.8 19.4 5.8 28.2l-23 18.1 18.6 23.6 22.6-17.8c4 3.3 8.3 6.2 13.2 8.6 3.9 1.9 7.9 3.3 11.9 4.4l-.2 29.9 30.1.2.2-29c9.2-2.1 18.1-5.8 25.9-11.3zm-65.2-67c7.2-14.6 24.8-20.7 39.5-13.5 14.6 7.2 20.7 24.8 13.5 39.4-7.2 14.6-24.8 20.7-39.5 13.5-14.6-7.1-20.7-24.8-13.5-39.4z"/></g></g><g id="Character_4"><path class="st13" d="M560.6 263.7s-8 5.8-8.5 5.9-4.1.8-4.5 1.6-.8 2-.4 2.7c.4.8 25.5-.2 25.5-.2s.5-1.3.2-3-.3-4.9-.3-4.9l-12-2.1z"/><path class="st13" d="M573 272.3l-25.9.2c-.1.5-.1 1 .1 1.4.4.8 25.5-.2 25.5-.2s.2-.5.3-1.4zM623.6 262.2l-1.5 4.4-5.8 5.1s-.4 1.4.3 1.7c.7.3 11.8-.1 11.8-.1s1.8-.9 2.5-1.6 6.2-8.7 6-9.6c-.1-.9-3.5-3.7-3.5-3.7l-9.8 3.8z"/><path class="st13" d="M630.8 271.7c.6-.7 6.2-8.7 6-9.6 0-.3-.5-.9-1.1-1.5-2 3.4-5.8 9.7-6.6 10.2-.9.5-9.6.9-12.9 1-.1.3-.3 1.4.3 1.6.7.3 11.8-.1 11.8-.1s1.9-.9 2.5-1.6z"/><path class="st14" d="M581.5 198.5s-1 3.2-1 3.8.1 2.2.1 2.2-16.7 20.1-17.7 22.1-1.4 35.4-1.4 35.4-1.6.4-1.5.9c0 .5-.2 1.6-.2 1.6s3.3 1.9 5.2 2.6c2 .6 7.1 1.5 7.1 1.5s.6-1.3.6-2.6-.4-3.6-.4-4 5.1-29.1 5.1-29.1l16.3-18.3s7.2 20.2 8.6 21.3 19.4 24.5 19.4 24.5-1.3.8-.6 1.2c.7.4 2 2.6 2 2.6s5.2-.8 7.2-2.1 3.1-3.5 3.1-3.5-1.6-2.7-2.2-3.5c-.7-.8-1.6-2.1-1.6-2.1l-15.1-26.1s-3.7-29.3-4.8-32c-1.1-2.7-4.7-7-4.7-7l-23.5 10.6z"/><path class="st17" d="M580.7 201.1l25.9-11.5-1.7-1.8-23.6 9.6z"/><path class="st11" d="M586.4 199.7l.7 2.1s-1.3.8-1 1.4c.3.6 2 2.2 2 2.2M588.5 198.8l1.1 2.3s-1.3 1-.6 1.9c.7.9 1.6 1.8 1.6 1.8M589.1 208.7l-1-1.1M593.6 214.4l-2.8-3.5M622.7 246.4l2.2 3.7M606.4 203.8l5.1 22.4-.4 1.8s1.6.2 1.6.6v.4l8.6 14.8M569.5 254.7l-.8 6.2M589.2 213.6l-16.1 18.7s-2.6-.2-2.2.4 1.2 1.5 1.2 1.5l-2.4 18.4"/><path class="st13" d="M563.7 166.4s1.4 12.8 2.5 14.1S578 192 578 192s2.2 6.3 2.3 6.8c.1.5-.6 1.3 1 1 1.6-.3 23.1-10.3 23.8-11 .7-.7 1.1-2 1.1-2.7 0-.6-.7-1.6-1-2-.4-.5-2.1-1.6-2.1-1.6s-10.2-16.9-12.4-19c-2.2-2.1-10.4-9.1-14-9.8-3.7-.7-8.6-.5-8.6-.5l-4.4 13.2z"/><path class="st13" d="M533.9 151.8s-2-2.9-2.5-3.4-6.5-3.8-6.5-3.8-2 .4-.5 1.5 4 4.3 4 4.3-2.1-.6-2.8-.6-1 1.7-.2 1.9c.8.2 1.9.6 1.9.6s1.7 2.7 2.5 3.1c.8.4 2.4.5 2.4.5l33.8 14 1.8-9.7-33.9-8.4z"/><path class="st13" d="M558.9 148.5s-1.9-2.5-4.8-4.8-12.7 1-14.1 9.3c0 0-1.2 4 .7 6.1 2 2.2 5.1 4.1 5.1 4.1s3.3 3.8 3.7 3.6c.4-.2 1.6-2.1 1.6-2.1s5.4 2.9 5.9 2.4 2.4-3.8 2.4-3.8l3 1.9 3.9-11.8-4.7-1-2.7-3.9z"/><path class="st13" d="M565.6 152.6l-4.2 14 3.9 2.8 3.8-16.8z"/><path class="st15" d="M564.9 176.5l-.8 25.6 2 3.8 2.6-4.6-2.8-26.4z"/><path class="st13" d="M574.7 158.1c-1.3-.4-2.5-.5-3.6-.4-4.1.4-9.9 9.6-10.3 9.8-.4.2-8.1 7.6-8.1 7.6l-21.4-3-6-7.3s-2.1-.9-2.8-1.4c-.6-.5-.8-1.8-1.7-1.2s-1.3 1.5-1 2.1c.3.6 1.4 1.6 1.4 1.6l.6.8s-6.5-.4-7 .1-.6 1.2-.3 1.4c.2.1 4.1.7 5.4 1 0 .1-6.9.2-7 .6-.1.5-.2 1.1.1 1.2.3.1 6.2 1.1 6.2 1.1s-4.4.6-4.7.9c-.3.3-.1.8.1 1 .3.2 5.5 0 5.5 0s-3.7.8-3.4 1.2c.3.4.4.6.7.6s10.7 1.6 10.7 1.6v-.1l1.3.3s25.2 8.5 26.2 8.6c1 .2 3-.3 3.7-.6.6-.3 11.5-9.6 11.5-9.6l.1-.5"/><path class="st11" d="M571.8 174.7l6.3-4.2M572.6 175l6.1-2.4"/><path class="st17" d="M546.1 154.4s.6 2.9 1.4 2.9c.8 0 3.4-1.5 3.4-1.5l2.1.8s1.1-.6-.1-1.7c-1.2-1.1-1.9-1-1.7-2 .1-.9 2.4-4.2 4-2.3 1.5 1.9 2 4.7 2 4.7l4.6-2.9s-3.6-7.2-5.3-8.5-6-1.8-9.1-.5c-3.1 1.3-5.9 2.3-7.4 6.6s-1.6 8-.6 8.2c.9.1 2.5-5.3 2.9-5.8.3-.5 3.8 2 3.8 2z"/><path class="st16" d="M548.3 160.6c.5.4.7.9.5 1.1s-.7.1-1.2-.3-.7-.9-.5-1.1c.1-.2.7 0 1.2.3z"/><path class="st11" d="M545.1 160.8s-.4-1.8 1.2-2.1M553.4 164.3s1.5-.9.5-2.5"/><path class="st13" d="M551.7 174.1l6.8 12.9 4.6-2.8-7.4-11.8z"/><path class="st11" d="M575 184.2s9 4.3 19.2 4.2M581.6 189.5s8.2 2.5 12.4 1"/><g><path class="st13" d="M674 401.6l-3.1 3-120-94.2 3-3z"/><path class="st13" d="M550.9 401.6l3 3L674 310.4l-3.1-3z"/><path class="st13" d="M672.2 279.6h4.3v187.1h-4.3zM551.3 279.6h4.3v187.1h-4.3z"/><path class="st13" d="M553.3 306h118.9v4.3H553.3zM553.3 402h118.9v4.3H553.3z"/><g><path class="st13" d="M655.3 401.6l-3 3-120.1-94.2 3-3z"/><path class="st13" d="M532.2 401.6l3 3 120.1-94.2-3-3z"/></g><g><path class="st13" d="M534.6 306h118.9v4.3H534.6zM534.6 402h118.9v4.3H534.6z"/><path class="st13" d="M530.7 279.6h4.3v187.1h-4.3zM653.4 279.6h4.3v187.1h-4.3z"/></g><path class="st17" d="M523.4 274.3h160.3v8.1H523.4z"/></g></g><g id="Character_1"><path class="st13" d="M167.6 347l20.5 8.5 21.5-3.8.4 3.6-21.3 8.2-23.3-10.2z"/><path class="st17" d="M185.4 325.1s4.2 1.8 3.9 4.1-2.3 2.9-3.2 4.1c-.9 1.3-.8.6-.8.6l-.8-7.1s-.1-2.8.9-1.7zM168.2 319.8s-2.1-2.6-6.3-2.4c-4.2.2-6.1 2.7-6.1 5.7s.5 2.1-5.8 3.9-6.3 4.2-6.4 5.5c-.1 1.3-1.6 1.3-3.5 3.4-1.9 2.2-2.1 8.9 5 11.4s12.9-1.5 14.2-6.8c1.3-5.3 0-6.6 1.6-8.1s0-3.8.7-6.5 4.5-3.9 5.7-4.1c1.2-.3 1.1-.9.9-2z"/><path class="st13" d="M164.3 338.1s-12.4 6.9-15.5 11c-3 4.1-4.5 20.1-4.5 20.1l15 9.6s10.1-10.4 11-13.4c.8-3-1.1-20.1-1.1-20.1l-4.9-7.2z"/><path class="st13" d="M182.7 323.1c-6.9-5.8-17-1.8-17.8 2.1-.8 3.9-.6 7.2-.6 7.2l.6 5.1-.6.6-2.6 1.2 6.6 12.6 3.9-9.2s4.7 2.7 5.5 2.7 5-5.4 5-5.4 1.3.9 1.8.8.5-5.5.5-5.5 1.2-3.7 1.3-6.8c.1-3-3.6-5.4-3.6-5.4z"/><path class="st16" d="M181.3 334.9c-.1.7 0 1.2.3 1.3.3.1.7-.4.8-1.1.1-.7 0-1.2-.3-1.3s-.7.5-.8 1.1z"/><path class="st11" d="M184 332.9s-.9-1.8-2.5-.9M179.6 341.4s-1.8.3-2.1-1.7"/><path class="st17" d="M186.6 327.5s2.5-2.2-3-5.6c-5.5-3.4-12.3-4-16.2-1.4-3.9 2.6-4.5 7-3.7 10.1s-.1 5.1 1.5 6.2c1.6 1 6.1-1.1 6.6-3.2.6-2.1.7-3.1 2.4-2.9s2.3 2.9 2.3 2.9 4-3.3 6.4-3.8c2.4-.5 3.7-2.3 3.7-2.3zM144.3 369.1s-15 11.6-16.4 18.6c-1.4 7-7.2 39.7-7.2 39.7s-11.5 28.5-11.5 29.3 4.8 1.8 4.8 1.8 17.2-25.1 17.8-25.9c.6-.8 11.2-27.6 11.2-27.6l10.3 22.9 8 31.6 5.2-1 .5-36-10-37.7 2.2-6.1-14.9-9.6z"/><path class="st13" d="M116 456.6s2 5.6 2.5 6.1 3.4 2.7 3.2 3.5c-.2.8-7.7.5-9.4.3s-5.6-4.5-6.1-5.8c-.5-1.3 2.4-5.4 3.8-6.4 1.5-.9 6 2.3 6 2.3zM167 456.8l4.1 3.7s7.1 2.8 7.1 3.4-1.4 1.6-5.6 2.2c-4.2.6-10.4-.2-12-.8-1.6-.6 1-5.8 1-5.8l5.4-2.7zM155.1 355c.5 2.2 1 1.8 2.9 3 3.8 2.5 27.4 10.2 27.4 10.2l24.2-10.1 4.8-1s1.1.2 1.6.4 1.2-.1 1.7-.5-2.1-1.5-2.1-1.5 3.1.1 4.1-.1 1.1-1.2.6-1.2-4.6-.5-4.6-.5 5.2-1.5 5.4-1.9c.2-.4-.5-1.2-1.2-1.2s-5.4.7-5.4.7l1.5-1.1s3-.9 3.8-1.6-.1-1.2-.1-1.2l-3 .4-4.6 1.7.5-1.2s1.2-1 1.4-2.2c.1-1.2-1.2 0-1.2 0l-4.1 3.8-1.1 4-21.7 5.9-22-13.2-.7-.2"/><path class="st13" d="M153.5 357.9l7.8 4.8 9.1-12.7s-8-5.4-8.8-5.5-3.8-.7-5.6 2"/></g></svg>