<svg id="Layer_1" xmlns="http://www.w3.org/2000/svg" viewBox="0 0 500 500"><style>.st2,.st3,.st4,.st5,.st7{fill:#ba9765;stroke:#263238;stroke-linecap:round;stroke-linejoin:round;stroke-miterlimit:10}.st3,.st4,.st5,.st7{fill:#263238}.st4,.st5,.st7{fill:#fff}.st5,.st7{fill:#858585}.st7{fill:none}.st8{fill:#263238}</style><g id="Background_Simple"><path d="M459 131.8C432.4 81.1 382 46 327.7 32.7 275.9 20 213.5 20.6 174.5 62.4c-25.7 27.5-36 65.9-58.6 95.6-11.3 14.8-25.4 21.5-40.1 31.9-36 25.2-62.5 65.8-56.7 111.7 9.7 76.7 79.7 117.9 150 122.5 92.9 6.1 159.2-6.3 215.5-42.3 29.2-18.7 58.4-40.9 76.3-71.6 27-46.4 25.9-104.9 8.4-154.8-2.9-8.1-6.4-16-10.3-23.6z" fill="#ba9765"/><path d="M459 131.8C432.4 81.1 382 46 327.7 32.7 275.9 20 213.5 20.6 174.5 62.4c-25.7 27.5-36 65.9-58.6 95.6-11.3 14.8-25.4 21.5-40.1 31.9-36 25.2-62.5 65.8-56.7 111.7 9.7 76.7 79.7 117.9 150 122.5 92.9 6.1 159.2-6.3 215.5-42.3 29.2-18.7 58.4-40.9 76.3-71.6 27-46.4 25.9-104.9 8.4-154.8-2.9-8.1-6.4-16-10.3-23.6z" opacity=".8" fill="#fff"/></g><g id="Signs"><path class="st2" d="M246.1 468.8h-9.5V53.3c0-2.6 2.1-4.8 4.8-4.8 2.6 0 4.8 2.1 4.8 4.8l-.1 415.5z"/><path class="st3" d="M152.6 103.9h83.7v29.5h-83.7zM246.3 72.3H330v29.5h-83.7zM246.3 153.5l46.7 6v-41.4l-46.7 6z"/><path class="st2" d="M283.6 139.6l-10.3-11.4v5l-21.6.8v10.8l21.6 1.1v5zM317.2 84.9l-15.9-9.2v4.1h-41.9v10.3h41.9v4zM166 118.9l15.9-9.2v4h41.9V124h-41.9v4z"/></g><g id="Character"><path class="st3" d="M265.4 229.8s.2 0 .7-.1c2.9-.4 14.3-1.9 20.8-4.5 7.5-3 24.6-1.4 24.6-1.4l7.5 5.4-8.5 5.6s-12-4-20.4-3.7-12.4 2.8-17.6 2.4-11.7-3.8-11.7-3.8l4.6.1z"/><path class="st4" d="M233.3 212.8v11.3h18.5v-13zM228.3 201.9s-4.4-2.9-2.9 2.2 2.9 7.1 5.1 6.8c2.2-.2 3.4-1 2.7-2.9-.8-1.9-4.9-6.1-4.9-6.1zM257.6 201.9s4.4-2.9 2.9 2.2-2.9 7.1-5.1 6.8c-2.2-.2-3.4-1-2.7-2.9.7-1.9 4.9-6.1 4.9-6.1z"/><path class="st3" d="M237.8 178.6s-7.3 2.4-9.7 9.3c-2.4 6.8-.2 15.1 1 18.5s7.1 10 7.1 10h13.1s4.9-4.6 7.5-10.7c2.7-6.1 2.7-14.6 2.7-14.6s2.2.7 2.2-2.2-6.8-8.5-6.8-8.5 3.2-1.2 1-2.9-10-1-10-1-1.1-5.2-8.1 2.1z"/><path class="st5" d="M266.6 458.3l2 1.2s2.2 0 3.5 1.2.8 7.5.8 7.5-1 .7-5.7.7-15.2 1.2-16.2-.6.2-9.1.2-9.1l15.4-.9z"/><path class="st3" d="M211.8 301.1s-1.5 11-1.5 13.2-.5 21.8-.5 21.8.2 51.2.2 52.2-4.2 15-2.8 24.5 4.5 46 4.5 46-1 8-.2 8.8 10 1.8 12 .8.8-10.8.8-10.8 1.2-4.2 1.2-7.2v-8c0-2.5 1.2-24.8 2.5-33.5s2-20.5 2-20.5l5.2-54 4-.2s5 58 5.2 62.2-.8 12.8 1.5 22.5 3.5 36.2 3.5 36.2-.5 2.5 0 3.5 1.8 4 1.8 4 2 .2 5.3 0c2.7-.2 4.4-.5 8-2.2 1.8-1.6 2.6-3.9 1.6-6.2-1.5-3.7-2.2-4.4-2.2-4.4s2.2-31.5 2.2-39.2-1.2-17.2-1.2-18 1.5-57 1.5-62.8-.5-21.2-3-28-42.5-5-46.5-4.8-5.1 4.1-5.1 4.1z"/><path fill="none" stroke="#757575" stroke-linecap="round" stroke-linejoin="round" stroke-miterlimit="10" d="M226.6 333.9l21.5-1"/><path class="st4" d="M239.1 223.6l-13.5 3.2s-19.5 9.5-23.8 12-21 36.3-20.2 38 4 4 7.2 4.5 19.8-18.2 19.8-18.2 4.8 23.5 4.8 24.5-2.8 13-1.5 15 49.2 0 49.2 0 3.5.2 4-3-1-12.8-1-12.8l5.5-28.8s10.5 15.9 12.9 18.5c4.1 4.5 9.2 2.6 11.9-.8 2.4-2.9.2-8.5-.5-10.2s-14-31.5-18-32.8-20.8-7.2-20.8-7.2l-16-1.9z"/><path class="st4" d="M225.6 226.8s16.5-.3 19.3-.3 12.8-.1 12.8-.1l-2.5-5.4s-5.2-1.5-13.2-1.5-14 2.5-14 2.5l-2.4 4.8z"/><path class="st7" d="M203.5 249.9l5.1 13.2-8.8-8.8M201.8 245.6l.6 1.5M230 285.4c-.9.7-1.7 1.4-2.6 1.9M252.8 247.6s-9.1 25-21.4 36.5M275.3 243.8l-5.7 14.3 9.2-10"/><path class="st4" d="M179.3 283.1s1.8 5.8 7.2 10 20.2 18.2 20.2 18.2-.2 1 0 2.2 4.2 4.5 4.2 4.5v-2.5l1-2 1-2.5s2.5-1 3.2-1.5 1.2-1.2 1.2-1.2 2.8.5 4.5.5 4.2-1.8 2.8-2.2-3 0-5-1-3-2-5-2h-5.2l-13.8-22.5-16.3 2z"/><path class="st4" d="M185.2 267.7s-2.9.9-3.7 1.6-4.5 6.5-3.8 9.5 1.8 7.2 8.2 8.5 10-1.5 10.5-2.2 1.7-9.6.7-9.6-3.7 3.3-3.7 3.3-7.4-1.7-8.9-2.9.7-8.2.7-8.2zM299.9 283.1s-1.8 5.8-7.2 10-20.2 18.2-20.2 18.2.2 1 0 2.2-5.8 5.1-5.8 5.1V315l-.4-2.3-.1-1.6s-2.5-1-3.2-1.5-1.2-1.2-1.2-1.2-2.8.5-4.5.5-4.2-1.8-2.8-2.2 3 0 5-1 3-2 5-2h5.2l13.8-22.5 16.4 1.9z"/><path class="st4" d="M295.1 268.9s1.9-.4 2.6.4 4.5 6.5 3.8 9.5-1.8 7.2-8.2 8.5-10-1.5-10.5-2.2-.9-9.3-.2-8.5c1.2 1.4 3.2 2.2 3.2 2.2s7.8-.4 9-4.8c.4-1.8.3-5.1.3-5.1z"/><path class="st5" d="M223.6 468.3c1.6-.8 1.1-7 .9-9.6-1.3.6-3.3 1.3-5.6 1.6-4.2.5-7-1.5-7-1.5s-.8 8.6-.1 9.5c.6.9 9.8 1 11.8 0z"/></g><g id="Plants"><path class="st8" d="M401 469.3c-.2 0-.4-.2-.4-.4v-51.6c0-.2.2-.4.4-.4s.4.2.4.4v51.6c0 .3-.2.4-.4.4zM400.6 464.3s-2.7-3.9-6.2-5.8-9.3-1.9-9.3-1.9 3.1 11.2 15.5 7.7z"/><path class="st8" d="M401 464.3s2.7-3.9 6.2-5.8 9.3-1.9 9.3-1.9-3.1 11.2-15.5 7.7zM400.6 450.3s-2.7-3.9-6.2-5.8-9.3-1.9-9.3-1.9 3.1 11.2 15.5 7.7zM401 450.3s2.7-3.9 6.2-5.8 9.3-1.9 9.3-1.9-3.1 11.2-15.5 7.7zM400.6 436.4s-2.7-3.9-6.2-5.8-9.3-1.9-9.3-1.9 3.1 11.1 15.5 7.7zM401 436.4s2.7-3.9 6.2-5.8 9.3-1.9 9.3-1.9-3.1 11.1-15.5 7.7zM400.6 422.4s-2.7-3.9-6.2-5.8-9.3-1.9-9.3-1.9 3.1 11.2 15.5 7.7zM401 422.4s2.7-3.9 6.2-5.8 9.3-1.9 9.3-1.9-3.1 11.2-15.5 7.7zM401 417.3s-3.1-4.2-3.3-8.2c-.2-4 2.5-9.2 2.5-9.2s9.5 7.9.8 17.4z"/><g><path class="st8" d="M59.2 469.3c-.2 0-.4-.2-.4-.4v-55.8c0-.2.2-.4.4-.4s.4.2.4.4v55.8c0 .2-.2.4-.4.4zM58.8 463.9s-2.9-4.2-6.7-6.3c-3.8-2.1-10.1-2.1-10.1-2.1s3.4 12.1 16.8 8.4z"/><path class="st8" d="M59.2 463.9s2.9-4.2 6.7-6.3 10.1-2.1 10.1-2.1-3.4 12.1-16.8 8.4zM58.8 448.8s-2.9-4.2-6.7-6.3c-3.8-2.1-10.1-2.1-10.1-2.1s3.4 12.1 16.8 8.4zM59.2 448.8s2.9-4.2 6.7-6.3c3.8-2.1 10.1-2.1 10.1-2.1s-3.4 12.1-16.8 8.4zM58.8 433.7s-2.9-4.2-6.7-6.3c-3.8-2.1-10.1-2.1-10.1-2.1s3.4 12.2 16.8 8.4zM59.2 433.7s2.9-4.2 6.7-6.3c3.8-2.1 10.1-2.1 10.1-2.1s-3.4 12.2-16.8 8.4zM58.8 418.6s-2.9-4.2-6.7-6.3c-3.8-2.1-10.1-2.1-10.1-2.1s3.4 12.2 16.8 8.4zM59.2 418.6s2.9-4.2 6.7-6.3c3.8-2.1 10.1-2.1 10.1-2.1s-3.4 12.2-16.8 8.4zM59.2 413.1s-3.4-4.5-3.5-8.8c-.2-4.3 2.7-9.9 2.7-9.9s10.2 8.5.8 18.7z"/></g><g><path class="st8" d="M95.2 469.1v-25.4c0-.2-.2-.4-.4-.4s-.4.2-.4.4v25.4h.8z"/><path class="st8" d="M94.4 464.3s-2.9-4.2-6.7-6.3c-3.8-2.1-10.1-2.1-10.1-2.1s3.4 12.1 16.8 8.4zM94.8 464.3s2.9-4.2 6.7-6.3c3.8-2.1 10.1-2.1 10.1-2.1s-3.4 12.1-16.8 8.4zM94.4 449.2s-2.9-4.2-6.7-6.3c-3.8-2.1-10.1-2.1-10.1-2.1s3.4 12.1 16.8 8.4zM94.8 449.2s2.9-4.2 6.7-6.3c3.8-2.1 10.1-2.1 10.1-2.1s-3.4 12.1-16.8 8.4zM94.8 443.7s-3.4-4.5-3.5-8.8c-.2-4.3 2.7-9.9 2.7-9.9s10.2 8.4.8 18.7z"/></g><g><path class="st8" d="M366.9 469.1v-23.5c0-.2-.2-.4-.4-.4s-.4.2-.4.4v23.5h.8zM366.1 464.6s-2.7-3.9-6.2-5.8-9.3-1.9-9.3-1.9 3.1 11.2 15.5 7.7z"/><path class="st8" d="M366.5 464.6s2.7-3.9 6.2-5.8 9.3-1.9 9.3-1.9-3.1 11.2-15.5 7.7zM366.1 450.7s-2.7-3.9-6.2-5.8-9.3-1.9-9.3-1.9 3.1 11.2 15.5 7.7zM366.5 450.7s2.7-3.9 6.2-5.8 9.3-1.9 9.3-1.9-3.1 11.2-15.5 7.7zM366.5 445.6s-3.1-4.2-3.3-8.2c-.2-4 2.5-9.2 2.5-9.2s9.5 7.9.8 17.4z"/></g><g><path class="st8" d="M434.5 469.1v-23.5c0-.2-.2-.4-.4-.4s-.4.2-.4.4v23.5h.8zM433.7 464.6s-2.7-3.9-6.2-5.8-9.3-1.9-9.3-1.9 3.1 11.2 15.5 7.7z"/><path class="st8" d="M434.1 464.6s2.7-3.9 6.2-5.8 9.3-1.9 9.3-1.9-3.1 11.2-15.5 7.7zM433.7 450.7s-2.7-3.9-6.2-5.8-9.3-1.9-9.3-1.9 3.1 11.2 15.5 7.7zM434.1 450.7s2.7-3.9 6.2-5.8 9.3-1.9 9.3-1.9-3.1 11.2-15.5 7.7zM434.1 445.6s-3.1-4.2-3.3-8.2c-.2-4 2.5-9.2 2.5-9.2s9.5 7.9.8 17.4z"/></g></g><g id="Floor"><path class="st7" d="M475.2 469h6.8M117.9 469H466M40 469h68.7"/></g></svg>